<svg width="285" height="426" viewBox="0 0 285 426" fill="none" xmlns="http://www.w3.org/2000/svg">
<path d="M205.236 1.76132C201.521 3.33126 200.947 3.75246 197.692 7.00721C195.433 9.22809 193.787 11.2575 193.136 12.5211L192.14 14.5888L190.762 13.7082C189.957 13.2487 187.89 11.9468 186.128 10.8363C182.644 8.65372 182.108 8.53885 178.279 9.22809C176.556 9.49613 175.062 10.1471 172.726 11.6021C169.548 13.5933 169.51 13.6316 167.71 17.1926C165.528 21.5195 165.03 23.7021 165.03 29.0629V33.1218L167.174 36.2999C168.323 38.0613 169.242 39.5547 169.165 39.6312C169.089 39.7078 167.289 40.0142 165.145 40.3588C163 40.6651 160.894 41.0863 160.473 41.3161C159.822 41.699 156.606 46.0642 155.534 48.0936C155.036 49.0126 154.27 53.5309 154.232 55.4838C154.232 57.5132 158.329 61.4189 163.383 64.1759C165.566 65.3629 167.442 66.4733 167.519 66.6648C167.634 66.8179 166.676 67.5072 165.413 68.1964C163.23 69.3452 162.962 69.6515 160.933 73.2509C158.444 77.6926 157.831 79.5306 157.487 83.3214L157.257 86.0401L155.495 86.6527C154.538 86.9974 152.777 87.4569 151.628 87.6483C144.276 89.0268 131.755 92.1284 121.569 95.1151C115.366 96.9148 110.12 98.4081 105.87 99.6334C102.577 100.552 93.0426 102.926 86.3417 104.535C83.623 105.186 79.8322 106.066 77.9176 106.526C76.0413 106.985 74.1651 107.598 73.8205 107.904C72.978 108.594 72.9398 109.627 73.6673 110.278C74.1268 110.623 74.4714 110.546 75.3138 109.934C75.9265 109.474 78.8366 108.555 82.1296 107.789C85.3078 107.024 89.3284 106.066 91.128 105.645C92.9277 105.224 95.4166 104.611 96.6803 104.343C100.28 103.501 113.796 99.71 124.441 96.5702C130.568 94.7705 143.778 91.4774 149.522 90.3287C152.7 89.716 156.032 88.9119 156.95 88.5673C158.865 87.8398 158.482 87.5717 161.316 91.4774C162.464 93.0857 162.771 93.2771 167.519 94.8471C170.238 95.766 173.109 96.4936 173.913 96.4936C174.718 96.4936 175.369 96.5319 175.369 96.6084C175.369 96.685 174.947 98.1784 174.411 99.9398C173.875 101.701 173.454 103.463 173.454 103.845C173.454 104.228 173.224 104.535 172.994 104.535C172.726 104.535 170.161 104.803 167.327 105.109C158.176 106.143 152.317 106.794 146.842 107.368C140.447 108.057 132.406 108.976 127.888 109.513C126.088 109.704 121.608 110.087 117.932 110.278C111.461 110.661 106.636 111.044 98.5948 111.848C90.6685 112.652 88.2179 112.997 86.2268 113.571C84.4654 114.069 84.1973 114.261 84.3122 114.988C84.3888 115.677 84.7334 115.869 85.8822 115.945C86.6863 116.022 87.6053 115.869 87.9116 115.639C88.7923 114.873 101.467 113.571 119.272 112.384C123.905 112.078 128.309 111.733 129.036 111.619C130.376 111.389 135.661 110.814 146.229 109.704C149.254 109.398 152.279 109.053 152.93 108.938C153.581 108.823 156.606 108.479 159.669 108.134C162.732 107.828 166.906 107.368 168.974 107.139C171.003 106.947 172.918 106.832 173.224 106.947C173.531 107.062 173.875 108.287 174.105 110.164C174.335 111.81 174.564 113.418 174.641 113.725C174.756 114.184 174.182 114.337 171.731 114.567C170.046 114.682 166.255 114.988 163.307 115.218C160.358 115.486 151.934 115.831 144.544 116.022C137.192 116.213 129.266 116.558 126.93 116.75C123.254 117.056 108.512 119.775 106.713 120.464C105.908 120.77 105.832 121.995 106.598 122.263C106.904 122.378 110.58 121.804 114.754 120.923C124.441 118.932 131.142 118.358 148.565 117.937C156.261 117.783 164.8 117.439 167.519 117.171C170.276 116.903 173.339 116.673 174.373 116.635L176.288 116.596L178.47 119.928L180.691 123.221L186.32 126.016L191.949 128.811L199.339 128.39C206.499 127.969 206.806 127.931 209.141 126.744C210.481 126.054 212.128 125.174 212.856 124.714C214.272 123.872 214.923 123.91 222.505 125.288C224.956 125.71 225.185 125.671 231.312 124.025L237.592 122.34L241.421 119.047C247.854 113.495 248.045 113.265 252.181 105.492L256.086 98.2167L257.158 91.4391C257.771 87.6866 258.422 84.6233 258.652 84.6233C258.843 84.6233 261.179 83.9341 263.821 83.0534C267.688 81.7898 269.756 80.8325 274.428 78.0372C280.937 74.1316 280.21 75.0505 283.196 67.0094L284.958 62.223L284.728 57.3983C284.345 49.6252 284.154 48.9743 280.439 42.0436C278.601 38.5974 276.763 35.3426 276.381 34.7683C275.576 33.5812 267.076 28.2588 264.319 27.1866C263.323 26.8037 260.719 26.1911 258.537 25.8081C254.708 25.1572 254.593 25.1189 254.823 24.2382C255.014 23.3958 253.559 16.7332 252.678 14.474C252.334 13.6316 245.326 7.00721 242.608 4.93949C242.187 4.59486 239.353 3.36955 236.328 2.18252L230.891 -7.02143e-05H220.054H209.256L205.236 1.76132ZM234.988 6.04993C239.927 8.04107 240.157 8.19423 244.369 12.0233C249.041 16.2354 249.615 17.1926 250.228 21.7493C250.649 24.7743 250.457 24.8892 244.829 24.8892C240.234 24.8892 240.004 24.9275 235.907 26.4591C233.533 27.3398 231.235 28.4502 230.699 28.9863C228.976 30.7094 227.444 33.3898 227.444 34.6534C227.444 36.568 228.555 39.7844 229.359 40.2056C229.742 40.3971 231.733 40.5885 233.801 40.5885C237.438 40.5885 237.592 40.5502 241.765 38.6357C247.624 35.9553 248.773 35.0746 250.457 32.1645C251.262 30.786 252.142 29.5224 252.41 29.3692C252.678 29.1778 255.052 29.4458 257.886 29.9436C262.825 30.8626 262.902 30.9009 267.88 33.8493L272.896 36.7977L276.304 43.154C279.903 49.8933 280.056 50.3528 280.631 57.0537L280.937 61.036L278.984 66.3202L277.031 71.566L274.198 73.3274C268.875 76.6205 266.578 77.7692 262.634 79.0711C260.451 79.7986 258.499 80.4113 258.231 80.4113C257.962 80.4113 257.694 79.454 257.541 78.0372C257.388 76.7353 257.044 75.1271 256.737 74.4762C256.469 73.8635 254.287 71.3746 251.874 69.0005L247.471 64.7119H243.565C241.421 64.7119 239.353 64.8651 238.97 65.0948C238.587 65.2863 237.706 66.8562 237.017 68.541C235.639 71.9872 235.639 72.4467 237.592 76.8119C238.396 78.6116 238.74 78.9562 242.148 80.9474C246.743 83.666 247.088 83.7809 250.802 84.0872C254.44 84.3936 254.248 83.7043 252.908 91.554C251.989 97.1445 251.989 97.2211 249.079 102.62C247.471 105.607 245.786 108.67 245.288 109.436C244.522 110.661 237.056 117.63 235.715 118.396C235.447 118.549 232.997 119.277 230.278 120.043C226.296 121.153 224.956 121.345 223.424 121.153C220.016 120.694 220.054 120.885 222.122 116.596C224.343 112.001 225.07 109.168 224.458 107.789C223.96 106.756 219.978 104.535 218.523 104.535C217.144 104.535 210.788 107.828 210.29 108.823C209.639 110.087 207.916 115.295 207.916 115.984C207.916 116.635 208.605 118.051 209.869 120.119L210.635 121.345L208.414 122.455C206.231 123.565 204.585 123.833 194.897 124.599C193.404 124.714 192.523 124.408 188.388 122.378C184.137 120.272 183.448 119.813 182.376 118.166C181.495 116.864 181.227 116.137 181.457 115.716C181.916 114.797 181.572 114.107 180.576 114.107C179.236 114.107 178.547 112.384 178.049 107.789L177.589 103.577L178.776 99.8249C179.427 97.7572 180.04 95.9192 180.155 95.7277C180.27 95.5363 181.189 95.2683 182.184 95.1151C183.18 95.0002 184.673 94.579 185.516 94.1961C187.583 93.3154 192.561 89.1034 193.633 87.342C194.591 85.8103 194.782 83.5895 194.016 82.5939C193.442 81.7515 189.383 80.641 188.005 80.9474C187.43 81.024 185.477 82.1344 183.639 83.3597C180.729 85.2743 180.193 85.8486 179.313 87.6866C177.551 91.3243 177.092 91.7838 175.062 92.0901C173.607 92.2815 172.497 92.0901 169.242 91.0179C165.566 89.8692 165.107 89.6012 163.996 88.1078C162.962 86.7676 162.809 86.3464 163.154 85.7338C163.613 84.8148 163 83.7809 162.12 84.1255C160.818 84.6233 162.235 79.2626 164.379 75.5483C166.102 72.6382 166.37 72.3702 168.897 71.0683C170.352 70.3024 171.769 69.6898 171.999 69.6898C172.803 69.6898 173.837 68.4262 173.837 67.3923C173.837 65.899 171.578 63.9844 166.37 61.0743C163.843 59.6958 161.009 57.8195 160.129 56.9388L158.444 55.3306L158.674 53.0331C158.827 51.4249 159.286 50.1613 160.129 48.7445C162.464 44.9154 162.541 44.8771 166.408 44.4176C169.778 43.9964 169.969 44.0347 172.497 45.0303C174.871 45.9876 175.177 46.0259 176.096 45.5281C176.862 45.1069 177.13 44.6091 177.207 43.5369C177.321 42.235 177.092 41.8904 175.062 39.7078C173.799 38.4059 171.884 35.9936 170.812 34.3854C169.012 31.6667 168.859 31.2838 168.859 29.1012C168.859 25.7699 169.816 22.0556 171.463 18.954C172.726 16.58 173.148 16.1205 175.33 14.8569C176.862 13.9762 178.508 13.3635 179.772 13.2104C181.725 12.9423 181.801 12.9806 185.592 15.4313C189.957 18.2648 190.647 19.2221 189.957 21.6727C189.268 24.085 189.46 24.9657 191.259 28.6417C192.906 32.0496 193.059 32.2411 195.893 34.079C200.028 36.7594 200.756 36.7211 203.934 33.4664L206.384 30.9775V27.8759C206.384 24.9657 206.308 24.6594 205.044 22.7832C204.01 21.1749 203.244 20.5623 201.253 19.605C199.913 18.954 198.075 18.2265 197.233 17.9968C196.352 17.767 195.663 17.4224 195.663 17.1926C195.663 17.0012 196.161 15.8525 196.773 14.6271C197.501 13.1721 198.918 11.449 200.909 9.57271C203.436 7.19866 204.508 6.47113 207.342 5.28411L210.788 3.82904L220.361 3.94392L229.933 4.0205L234.988 6.04993ZM198.42 22.8597C202.555 24.6977 203.742 27.7993 201.253 30.2116C199.99 31.4369 199.837 31.4752 198.803 31.054C197.271 30.4031 196.352 29.3692 194.935 26.6123C193.978 24.7743 193.787 24.0468 193.978 22.898C194.208 21.5578 194.323 21.4813 195.242 21.6727C195.778 21.8259 197.233 22.3619 198.42 22.8597ZM247.356 28.9097C247.356 29.6373 246.016 31.4752 244.982 32.2793C242.876 33.811 236.558 36.4914 234.643 36.6828C231.58 36.9892 230.891 35.7638 232.652 33.2366C233.494 32.0113 234.26 31.5518 237.553 30.2882C240.846 28.9863 241.88 28.7566 244.407 28.7566C246.016 28.7183 247.356 28.7949 247.356 28.9097ZM249.27 72.2553C252.87 75.8547 253.023 76.0844 253.253 78.0372L253.521 80.0667L250.764 79.7986C248.505 79.5689 247.509 79.2243 244.944 77.8075C242.187 76.2376 241.804 75.8547 240.961 74.0167L240.042 72.0255L240.808 70.2641L241.574 68.541H243.565H245.556L249.27 72.2553ZM189.689 85.3509C189.957 85.7721 185.171 89.8692 183.831 90.4053C181.495 91.3243 182.988 88.8353 186.09 86.691C188.541 85.0062 189.306 84.6999 189.689 85.3509ZM219.48 109.168C220.475 109.704 220.284 110.661 218.408 114.644C217.412 116.711 216.608 117.86 215.804 118.358C215.153 118.741 214.464 119.047 214.272 118.97C214.119 118.932 213.545 118.166 213.085 117.362L212.205 115.831L212.932 113.533C213.583 111.351 213.775 111.159 215.842 110.01C218.408 108.632 218.446 108.632 219.48 109.168Z" fill="#26AF4C"/>
<path d="M153.274 41.431C151.705 42.1968 151.743 43.6519 153.274 43.6519C154.461 43.6519 155.84 42.618 155.84 41.699C155.84 40.8949 154.691 40.7417 153.274 41.431Z" fill="black"/>
<path d="M140.026 63.4101C134.78 66.6648 132.865 68.0433 132.865 68.5794C132.865 69.0006 133.095 69.4218 133.363 69.5366C133.976 69.7664 148.067 61.3423 148.373 60.5382C148.565 60.0404 147.952 58.9683 147.454 58.9683C147.301 58.9683 143.97 60.9594 140.026 63.4101Z" fill="#26AF4C"/>
<path d="M153.16 66.6265C153.16 67.1243 153.428 67.3923 153.925 67.3923C154.423 67.3923 154.691 67.1243 154.691 66.6265C154.691 66.1287 154.423 65.8607 153.925 65.8607C153.428 65.8607 153.16 66.1287 153.16 66.6265Z" fill="black"/>
<path d="M142.362 70.0345C141.672 70.6089 140.141 71.413 138.992 71.7959C133.401 73.5573 123.905 77.6545 118.812 80.4497C111.92 84.2405 99.2457 90.5585 89.4049 95.0386C85.4226 96.8766 78.7217 100.016 74.5096 102.008C67.196 105.53 66.8897 105.645 66.009 105.033C65.1666 104.497 65.1283 104.382 65.6644 103.769C66.5451 102.773 66.3919 101.203 65.2815 100.476C63.903 99.5953 60.1505 99.9016 57.4318 101.165C56.2831 101.74 54.3302 102.467 53.1049 102.812C50.9989 103.424 49.3907 104.573 49.3907 105.492C49.3907 105.722 48.7014 107.253 47.8973 108.9C46.3657 111.848 46.3657 111.848 46.94 113.648C47.2081 114.644 47.4761 116.443 47.4761 117.669C47.4761 119.545 47.7441 120.426 49.4289 123.795C51.7264 128.352 53.6793 133.942 53.2198 134.785C52.8369 135.551 53.3729 136.929 54.177 137.235C54.5217 137.35 55.4789 137.35 56.2448 137.235C57.5467 137.044 57.7381 137.082 57.9296 137.886C58.3508 139.418 58.2359 139.609 56.666 140.337C53.8707 141.601 53.0283 142.979 52.4922 147.038C52.2625 148.991 51.8796 150.944 51.6498 151.327C51.1138 152.284 48.4717 153.433 44.4894 154.352C41.6941 155.003 41.0049 155.347 39.1286 156.955C37.9033 157.989 35.2229 159.674 33.1169 160.746C30.7812 161.895 28.3305 163.503 26.8755 164.805C25.5353 165.992 23.5059 167.524 22.3571 168.175C21.0169 168.902 19.6384 170.127 18.6812 171.391C17.8388 172.54 16.3071 174.033 15.3116 174.761C13.3204 176.177 5.39415 184.831 4.78149 186.286C4.55174 186.784 3.51788 188.124 2.40744 189.273C0.224845 191.609 -0.196357 192.834 0.071681 196.319C0.301428 199.076 1.33529 200.071 3.63276 199.765C4.51345 199.612 5.50902 199.42 5.85364 199.267C6.4663 199.037 6.50459 199.918 6.50459 211.673C6.50459 219.14 6.65776 225.114 6.92579 226.339C7.15554 227.488 7.46187 230.972 7.61503 234.15C7.80649 237.29 8.64889 244.719 9.52959 250.615C11.7505 265.626 12.4014 270.106 13.9331 281.057C15.4647 292.2 15.771 294.114 16.3071 297.139C16.6517 298.939 17.2644 301.772 17.6473 303.457C18.1451 305.64 18.3748 307.976 18.3748 311.537C18.3748 315.787 18.528 317.204 19.4853 320.918C20.0979 323.33 20.7106 326.547 20.8638 328.078C21.0169 329.61 21.553 332.865 22.0508 335.354C23.1995 340.791 24.31 348.028 24.846 353.427C25.0758 355.648 25.4204 358.979 25.6502 360.894C25.8416 362.77 26.2628 366.829 26.5691 369.892C26.8755 372.956 27.5647 377.589 28.1008 380.231C28.7134 383.409 29.0964 386.702 29.1729 390.033L29.2878 395.05L26.9521 397.883C25.6884 399.453 24.4248 401.1 24.1951 401.559C23.5824 402.708 23.6207 405.312 24.2717 406.613C25.1141 408.183 28.0242 410.711 29.709 411.247C30.5131 411.515 32.2362 412.395 33.5381 413.2C35.9505 414.655 39.8562 416.607 40.3922 416.607C40.5454 416.607 42.3451 417.373 44.3745 418.292C46.4039 419.211 50.1182 420.513 52.6837 421.164C55.2109 421.815 58.121 422.619 59.1932 422.964C61.1843 423.615 66.8897 424.036 80.5979 424.61C85.0397 424.763 89.2517 425.108 89.9793 425.376C92.8511 426.295 97.7141 425.912 107.976 423.921C118.736 421.815 127.16 418.675 134.78 413.851C138.303 411.63 148.335 403.588 148.909 402.516C149.101 402.172 150.479 400.487 151.973 398.802C155.151 395.203 156.721 392.293 157.601 388.195C158.214 385.362 158.214 385.209 157.487 383.983C156.912 382.988 156.031 382.414 152.968 381.112C150.862 380.231 148.986 379.427 148.756 379.35C148.526 379.274 148.297 376.172 148.143 371.769C147.914 364.914 147.799 363.919 146.497 358.864C145.387 354.346 145.118 352.661 145.118 349.56C145.118 346.688 144.85 344.658 143.97 341.097C143.357 338.494 142.668 334.818 142.476 332.941C142.285 331.027 141.672 327.695 141.098 325.475C140.026 321.186 139.337 316.591 138.609 309.201C138.379 306.674 138.035 303.61 137.805 302.385C137.575 301.16 137.345 299.169 137.269 297.982C137.192 296.795 136.618 294.076 135.967 291.97C135.278 289.864 134.397 285.805 133.976 282.971C133.555 280.138 132.712 276.232 132.138 274.356C130.874 270.412 130.185 264.439 130.185 257.584C130.185 255.134 130.032 251.879 129.802 250.347C129.611 248.816 129.266 246.097 129.075 244.297C128.845 242.498 128.5 239.817 128.309 238.362C128.117 236.869 127.849 233.155 127.773 230.053L127.619 224.463L128.921 225.075C129.84 225.496 130.3 225.573 130.606 225.267C131.372 224.501 130.568 223.352 128.73 222.586L126.892 221.821L126.432 218.987C126.164 217.417 125.667 214.201 125.36 211.788C125.016 209.184 124.365 206.274 123.675 204.513C122.871 202.33 122.488 200.377 122.144 196.625C121.914 193.868 121.646 191.379 121.531 191.034C121.416 190.575 121.684 190.345 122.412 190.192C124.02 189.809 127.083 187.741 127.581 186.669C127.926 185.903 127.773 185.099 126.739 181.998C125.169 177.173 123.561 174.148 122.106 173.306C121.493 172.961 119.961 171.161 118.736 169.323C116.668 166.222 116.285 165.839 113.145 164.077C111.307 163.005 108.704 161.244 107.363 160.134C103.687 157.109 102.309 156.266 99.9732 155.615C98.7862 155.271 97.0248 154.505 95.991 153.892C94.9954 153.279 93.4255 152.628 92.5065 152.399C91.5492 152.207 89.4432 151.441 87.7967 150.714C86.1501 149.986 83.7761 149.221 82.5125 148.953C79.1429 148.302 78.9514 148.225 78.6834 147.421C78.5302 147 76.9986 145.851 75.1606 144.855C72.8248 143.553 71.5995 142.596 70.9869 141.601C70.0679 140.146 68.3448 138.997 67.1194 138.997C66.5068 138.997 66.3919 138.69 66.4302 136.738C66.4302 134.593 66.5068 134.44 67.4258 134.249C69.2255 133.904 69.7615 132.985 69.5701 130.803C69.2255 127.356 68.5745 122.991 68.1533 121.421C67.847 120.196 67.8853 119.2 68.3831 116.711C68.8426 114.529 68.9574 112.614 68.8043 110.432L68.5745 107.33L73.6289 104.918C86.6862 98.6763 89.8261 97.1829 96.0293 94.426C101.467 91.9753 111.958 86.6911 119.272 82.7089C125.169 79.4924 132.865 76.1994 139.107 74.1317C143.549 72.6766 145.808 70.8003 144.697 69.4601C144.085 68.6943 143.778 68.7709 142.362 70.0345ZM55.3258 111.159C55.3641 114.605 55.5172 116.175 55.9767 117.209C56.7808 119.047 59.691 121.038 61.8736 121.306C62.7925 121.383 63.7498 121.728 63.9796 121.996C64.2093 122.264 64.5157 124.025 64.6688 125.901C64.822 127.778 65.09 129.501 65.2432 129.73C65.4346 130.075 64.5156 130.19 61.6821 130.19C59.6144 130.19 57.6232 130.305 57.2786 130.42C56.8574 130.573 56.5894 130.228 56.2831 129.003C56.015 128.084 54.9046 125.48 53.7558 123.221C52.5688 120.809 51.6881 118.588 51.6881 117.86C51.6881 117.209 51.4967 115.601 51.3052 114.337C50.884 112.04 50.9223 111.925 52.2242 109.513C53.1049 107.904 53.8707 106.947 54.4451 106.756C54.9429 106.641 55.3258 106.526 55.3258 106.488C55.3258 106.449 55.3258 108.555 55.3258 111.159ZM64.7071 112.231C64.7071 115.218 64.3625 115.946 63.5584 114.529C63.1372 113.686 63.0223 109.015 63.4435 108.632C63.5584 108.479 63.903 108.555 64.2093 108.785C64.5539 109.091 64.7071 110.202 64.7071 112.231ZM59.2315 111.695C59.1549 112.308 59.0783 111.887 59.0783 110.853C59.0783 109.781 59.1549 109.321 59.2315 109.781C59.3081 110.278 59.3081 111.121 59.2315 111.695ZM68.2682 144.855C69.3403 146.004 70.6039 147.115 71.0251 147.344C72.2505 147.995 71.4463 148.302 68.0767 148.455C66.3153 148.531 63.0606 149.067 60.8014 149.603C58.5422 150.178 56.5894 150.522 56.4745 150.408C56.1299 150.101 56.7426 145.545 57.202 144.894C57.8147 144.09 62.1033 142.902 64.4391 142.864C66.1622 142.826 66.3919 142.941 68.2682 144.855ZM79.4875 152.628C82.321 153.203 85.2695 154.045 86.4948 154.658C87.6818 155.271 89.5198 155.921 90.5536 156.19C91.6258 156.458 93.234 157.147 94.1913 157.721C95.1486 158.334 97.1397 159.176 98.6713 159.636C101.007 160.325 101.811 160.823 104.147 162.967C105.679 164.346 107.938 165.954 109.278 166.605C110.618 167.256 112.265 168.29 112.992 168.902L114.294 170.051L112.571 169.821C108.704 169.285 106.559 168.443 104.645 166.72C103.649 165.762 102.424 164.92 101.964 164.805C101.428 164.652 101.084 164.231 101.007 163.58C100.892 162.699 100.394 162.278 97.6375 160.938C95.8378 160.057 93.9998 159.329 93.502 159.329C93.0043 159.291 92.1236 159.023 91.5492 158.717C90.1324 157.989 86.916 158.181 86.3799 159.023C86.0353 159.597 85.8821 159.559 84.6951 158.832C83.6612 158.181 83.0103 158.066 81.3638 158.257C79.4875 158.449 79.2577 158.372 78.2622 157.338C77.0369 156.036 75.6201 155.96 75.6201 157.185C75.6201 158.334 75.2755 158.449 71.7527 158.296C68.9191 158.219 68.3065 158.066 67.196 157.223C65.6644 156.036 64.9369 155.96 64.2093 156.994C63.7498 157.645 63.5584 157.683 62.4862 157.3C61.3758 156.879 61.1843 156.917 60.227 157.836C59.3846 158.64 59.04 158.755 58.5039 158.41C58.0062 158.066 57.6998 158.142 57.1255 158.64C56.1682 159.521 55.4024 159.483 55.7087 158.564C56.0533 157.453 54.9429 156.764 53.7558 157.338C53.0283 157.645 52.6071 157.683 52.2242 157.338C51.8413 157.032 50.9989 157.223 48.7397 158.066C47.0932 158.717 44.9872 159.483 44.0299 159.827C42.2302 160.478 34.9932 165.954 28.2157 171.851C25.4204 174.263 23.1229 175.871 20.7489 177.058L17.2644 178.82L19.9065 176.139C21.3998 174.684 22.5869 173.306 22.5869 173.114C22.5869 172.923 23.659 172.157 24.9226 171.506C26.2245 170.817 28.254 169.323 29.441 168.175C30.9343 166.72 32.8872 165.456 35.7973 164.001C38.1331 162.852 40.6986 161.244 41.541 160.44C42.7663 159.253 43.6087 158.832 45.753 158.334C47.2464 157.989 49.5438 157.3 50.884 156.764C54.8663 155.156 66.4302 152.399 69.2637 152.36C70.6422 152.322 72.2122 152.169 72.7482 152.016C74.2033 151.556 74.2416 151.556 79.4875 152.628ZM68.3448 160.593C69.034 161.091 69.034 161.129 68.2299 161.55C67.0046 162.201 66.6217 162.048 66.6217 161.014C66.6217 159.942 67.2726 159.789 68.3448 160.593ZM42.1153 164.805C42.1153 164.882 41.3878 165.418 40.5454 165.992C39.6647 166.566 39.0903 166.834 39.2435 166.566C39.3967 166.337 40.0476 165.801 40.7369 165.379C41.9622 164.614 42.1153 164.575 42.1153 164.805ZM94.9571 169.668C98.9777 170.396 102.768 171.276 104.453 171.965C105.985 172.54 108.282 173.229 109.584 173.459C112.341 173.957 115.328 175.373 116.975 176.905C117.625 177.518 118.851 178.284 119.731 178.628C121.072 179.164 121.416 179.547 122.067 181.232C123.369 184.563 123.446 184.946 122.642 185.521C121.569 186.363 120 186.21 119.387 185.214C118.659 184.142 113.643 181.27 110.388 180.083C109.01 179.585 105.564 178.59 102.768 177.862L97.6758 176.522H80.9426C68.3831 176.522 63.3669 176.675 60.7248 177.058C58.8103 177.365 55.0195 177.901 52.2625 178.245C36.9077 180.16 34.1508 180.696 29.1729 182.687C26.5309 183.759 23.7356 184.946 22.9315 185.367C21.0935 186.286 12.21 192.49 11.5973 193.255C11.1761 193.791 8.68719 194.557 5.66219 195.055C4.322 195.285 4.20712 195.246 4.20712 194.404C4.20712 191.417 17.5324 182.496 28.7134 178.015C30.2834 177.403 32.466 176.446 33.4998 175.948C35.8739 174.837 43.3024 173.076 45.7147 173.076C47.7058 173.076 51.8413 172.119 56.2448 170.587C58.2742 169.898 59.959 169.63 61.9884 169.591C63.5967 169.591 66.1239 169.362 67.5789 169.094C69.1872 168.787 73.8587 168.596 79.2577 168.558C87.6818 168.519 88.6774 168.596 94.9571 169.668ZM67.7704 186.248C67.7704 192.643 67.8853 193.37 68.9191 193.37C69.953 193.37 70.1062 192.528 70.0296 186.325L69.9913 180.543H73.2077H76.3859L76.5774 184.755C76.7688 188.66 76.8454 188.967 77.5346 188.967C78.2622 188.967 78.3005 188.66 78.4153 184.64L78.5302 180.313L81.2872 180.428C83.9675 180.543 84.0441 180.581 83.9293 181.5C83.891 182.036 84.0824 182.802 84.3888 183.223C84.8482 183.836 85.0014 183.874 85.5375 183.453C85.8821 183.146 86.1501 182.381 86.1501 181.653V180.351H90.9748C95.1103 180.351 96.4505 180.504 100.433 181.538C106.904 183.185 111.039 184.678 114.064 186.478C115.481 187.32 116.86 188.009 117.089 188.009C117.357 188.009 117.549 188.124 117.549 188.277C117.779 198.042 118.315 202.215 119.655 205.585C120.191 206.887 120.88 210.027 121.34 213.32C121.761 216.345 122.22 219.217 122.374 219.676C122.68 220.787 122.22 220.787 119.54 219.791C118.43 219.37 117.128 219.025 116.63 219.025C116.094 219.025 113.95 218.681 111.805 218.259C109.01 217.723 106.368 217.494 102.424 217.494C98.7479 217.494 96.1824 217.302 94.6891 216.919C91.9704 216.192 86.3033 216.192 83.2783 216.881C82.0147 217.187 79.7938 217.532 78.3005 217.685C71.7144 218.298 65.0517 219.944 55.5172 223.314C50.2331 225.152 48.6248 225.535 44.9872 225.803C41.7707 225.994 41.3495 226.147 38.2862 227.871C36.4865 228.904 34.7252 229.747 34.3805 229.747C33.9976 229.747 33.653 229.287 33.4998 228.483C33.3467 227.832 32.734 225.841 32.1214 224.08L31.0109 220.863V203.671V186.44L32.2745 185.903C32.9638 185.635 33.9976 185.252 34.572 185.138L35.6059 184.87V191.953C35.6059 196.625 35.759 199.42 36.0653 200.148C36.3334 200.76 36.6014 204.092 36.7163 207.921C36.946 214.277 36.9843 214.622 37.7119 214.622C38.4394 214.622 38.4777 214.315 38.5926 207.997C38.6691 202.943 38.5543 200.914 38.0948 199.42C37.2907 196.702 37.2524 184.755 38.0565 184.448C38.3628 184.334 39.8179 184.104 41.3112 183.951L44.0299 183.683V191.494C44.0299 199.612 44.7191 206.083 45.6381 207.002C45.9445 207.346 46.3274 207.385 46.7103 207.155C47.1698 206.887 47.1698 206.274 46.7869 203.058C46.5188 200.99 46.3274 195.668 46.3274 191.226V183.146L48.3568 182.878C49.4289 182.764 50.9223 182.649 51.6115 182.649H52.8369V189.043C52.8751 197.889 53.7941 202.139 55.4024 200.569C55.9767 199.995 55.9767 199.65 55.3641 196.165C54.56 191.226 54.5217 182.457 55.2875 182.151C55.5938 182.036 56.8957 181.806 58.1593 181.653L60.4951 181.385V182.878C60.4951 185.597 61.2226 195.17 61.4907 195.821C61.797 196.587 63.0223 196.625 63.3286 195.821C63.4435 195.515 63.4052 193.14 63.1755 190.575C62.984 188.009 62.7543 184.831 62.6777 183.529L62.5628 181.155L64.2859 180.811C68.0767 180.007 67.7704 179.547 67.7704 186.248ZM29.0964 191.685C29.0964 191.992 28.9432 192.145 28.7134 192.03C28.522 191.915 28.3305 191.647 28.3305 191.417C28.3305 191.226 28.522 191.073 28.7134 191.073C28.9432 191.073 29.0964 191.341 29.0964 191.685ZM29.0964 194.251C29.0964 195.361 28.9049 195.629 27.3733 196.357C25.3821 197.314 25.2672 197.352 25.2672 196.816C25.2672 196.625 25.9565 195.974 26.7989 195.438C27.6413 194.902 28.4071 194.098 28.522 193.715C28.8666 192.643 29.0964 192.834 29.0964 194.251ZM19.447 194.596C19.7533 194.672 19.5236 195.093 18.7578 195.859L17.609 196.97V195.438C17.609 193.677 17.9153 193.14 18.528 193.906C18.7578 194.213 19.179 194.481 19.447 194.596ZM15.8859 210.984C16.0008 216.766 16.3071 222.701 16.5369 224.195C16.7666 225.65 17.0729 228.33 17.2261 230.13C17.341 231.929 17.7239 234.227 18.0302 235.222C18.528 237.022 18.528 237.099 17.609 237.788C16.3454 238.745 12.6695 240.239 12.3248 239.932C12.21 239.779 11.9419 237.29 11.8271 234.418C11.6739 231.546 11.3676 227.947 11.1378 226.492C10.9081 224.999 10.7166 218.106 10.7166 211.099C10.7166 197.084 10.4869 198.386 13.0907 197.812C13.665 197.659 14.3543 197.199 14.6223 196.702C15.0818 195.936 15.1201 196.051 15.3498 198.157C15.503 199.42 15.7328 205.202 15.8859 210.984ZM19.4087 199.42C18.2217 200.646 18.1451 201.105 18.9492 201.794C19.447 202.215 19.7916 202.177 20.9021 201.679C21.6296 201.296 22.3188 201.028 22.3954 201.028C22.472 201.028 21.5913 201.909 20.4426 203.02C18.6046 204.743 18.3748 205.126 18.5663 206.083C18.7195 206.734 18.6429 207.155 18.4131 207.155C18.1834 207.155 17.9919 206.389 17.9919 205.279C17.9919 204.283 17.8771 202.407 17.7622 201.105L17.4941 198.808L18.6046 198.616C19.2172 198.54 19.8682 198.425 20.0597 198.386C20.2894 198.386 19.9831 198.846 19.4087 199.42ZM29.0964 199.65C29.0964 200.416 28.9432 200.492 28.1391 200.339C27.1818 200.186 27.1818 200.148 27.7945 199.458C28.6752 198.501 29.0964 198.54 29.0964 199.65ZM29.0964 203.058C29.0964 204.283 29.0198 204.321 27.1052 204.743C25.9948 204.972 25.0375 205.126 24.9609 205.049C24.846 204.934 28.7517 201.833 29.0198 201.794C29.0581 201.794 29.0964 202.369 29.0964 203.058ZM29.0964 209.721V212.324L27.6796 212.363C26.8755 212.363 25.6119 212.516 24.8843 212.669L23.5441 212.975L25.0375 211.712C25.8799 210.984 26.7989 210.218 27.1052 209.989C27.4498 209.759 27.7179 209.223 27.7562 208.84C27.7562 208.419 27.9093 207.883 28.1008 207.615C28.7517 206.542 29.0964 207.308 29.0964 209.721ZM21.0169 208.342C23.4676 207.615 23.6207 207.844 21.6296 209.299C18.3365 211.635 18.3748 211.635 18.3748 209.606C18.3748 208.036 18.4514 207.883 18.9492 208.304C19.4087 208.687 19.8682 208.687 21.0169 208.342ZM29.0964 215.885V218.145L26.9903 217.762C25.8416 217.532 24.8843 217.264 24.9226 217.149C24.9226 216.958 28.7517 213.703 29.0198 213.665C29.0581 213.665 29.0964 214.66 29.0964 215.885ZM21.1701 216.192L22.7783 215.962L21.1701 217.34C18.4897 219.561 19.2555 220.787 22.8166 219.944C24.0419 219.676 24.9609 219.638 25.1141 219.829C25.229 220.021 25.1524 220.174 24.9226 220.174C24.6929 220.174 23.2761 220.787 21.7828 221.514C20.2511 222.242 18.8726 222.854 18.6812 222.854C18.528 222.854 18.3748 221.208 18.3748 219.178C18.3748 215.924 18.4514 215.541 18.9492 215.962C19.3321 216.268 20.0979 216.345 21.1701 216.192ZM93.2723 218.834C94.5742 219.217 96.91 219.408 100.816 219.408C104.875 219.408 107.593 219.638 110.197 220.136C112.265 220.557 114.677 220.978 115.634 221.131C118.162 221.514 122.488 223.199 122.91 224.003C123.293 224.692 123.446 226.683 123.139 226.683C123.025 226.683 121.608 226.109 119.961 225.42L116.975 224.195L102.998 224.08C94.3444 224.003 87.1457 224.118 84.0441 224.386C81.3255 224.654 76.9603 224.922 74.3565 224.999C68.0767 225.19 64.0179 225.726 58.6188 227.066C56.1682 227.679 52.5305 228.368 50.5394 228.598C48.5482 228.828 45.6381 229.364 44.1065 229.785C40.6986 230.704 40.5837 230.704 40.5837 229.747C40.5837 228.56 42.4983 227.832 45.485 227.832C48.2036 227.832 50.9989 227.181 56.8574 225.19C67.1577 221.667 70.872 220.787 79.8321 219.6C82.1679 219.293 84.7334 218.872 85.5758 218.681C87.9881 218.145 91.2046 218.221 93.2723 218.834ZM30.1685 225.075C30.8578 227.334 31.4321 229.364 31.3938 229.555C31.3938 229.938 29.441 231.278 28.9432 231.278C28.79 231.278 28.7134 231.049 28.7517 230.781C28.9432 229.287 28.8283 229.249 25.0758 229.479C23.0846 229.632 21.4381 229.67 21.4381 229.594C21.4381 229.517 22.9315 228.445 24.8078 227.22C28.5986 224.692 29.1346 224.156 28.8283 223.352C28.6369 222.854 28.1391 222.816 26.0714 223.008L23.5441 223.237L25.8416 222.127C27.1052 221.514 28.3305 220.978 28.522 220.978C28.7517 220.978 29.4793 222.816 30.1685 225.075ZM22.204 226.109C22.204 226.339 19.8299 227.832 19.447 227.832C19.2555 227.832 19.1407 227.411 19.1407 226.875C19.1407 225.994 19.2938 225.918 20.6723 225.918C21.5147 225.918 22.204 225.994 22.204 226.109ZM115.481 228.368C118.2 229.096 122.603 230.857 123.407 231.585C123.943 232.044 124.058 232.81 124.058 235.452C124.058 237.252 124.25 239.856 124.441 241.234C125.36 247.208 125.667 250.347 125.973 258.082C126.394 268.383 126.815 271.714 128.232 275.964C128.845 277.84 129.534 281.095 129.802 283.316C130.032 285.499 130.759 289.021 131.372 291.166C131.985 293.272 132.482 295.148 132.482 295.301C132.482 295.454 131.755 295.952 130.874 296.412C129.955 296.871 128.309 297.905 127.198 298.747C124.288 300.93 122.029 301.811 112.456 304.606C104.836 306.827 96.7568 309.66 91.3195 312.073C88.7539 313.221 79.7938 315.098 73.7821 315.749C71.1017 316.017 67.1577 316.706 64.9751 317.28C62.8308 317.816 58.3125 318.659 54.9429 319.157C51.5732 319.654 47.0166 320.497 44.7957 321.033C42.5748 321.531 39.2435 322.258 37.329 322.564C35.4527 322.909 32.0831 323.522 29.8622 323.943C27.6413 324.364 25.5736 324.709 25.2672 324.709C24.846 324.709 24.3865 323.522 23.6207 320.382C22.7783 316.859 22.5869 315.251 22.5869 311.307C22.5869 307.554 22.3571 305.602 21.6296 302.308C20.7872 298.671 19.2938 289.558 17.9536 279.908C17.3027 274.969 14.1628 253.372 13.9331 251.917C13.7033 250.615 13.8182 250.462 18.8726 245.599C23.7356 240.928 24.2334 240.583 26.684 239.817C28.1008 239.396 31.0109 238.401 33.1169 237.596C39.4733 235.261 46.6337 233.308 51.4967 232.657C54.0239 232.351 57.3935 231.738 58.9634 231.317C64.3625 229.9 68.7277 229.326 76.7688 228.943C81.2106 228.713 85.9204 228.407 87.2989 228.253C91.8172 227.717 113.299 227.794 115.481 228.368ZM24.1185 231.776C24.1185 231.853 23.3144 232.465 22.3571 233.193C20.5957 234.457 20.0597 234.418 19.8299 233.002C19.7533 232.389 19.9831 232.197 21.2467 232.006C23.2761 231.7 24.1185 231.623 24.1185 231.776ZM13.9714 242.766C13.1672 243.646 12.6312 243.761 12.6312 242.995C12.6312 242.498 13.2055 242.191 14.316 242.038C14.5074 242.038 14.3543 242.345 13.9714 242.766ZM133.555 301.313C133.823 303.189 130.3 304.989 121.952 307.286C119.425 307.976 116.783 308.971 111.805 311.115C104.721 314.179 97.8289 316.323 92.0853 317.242C91.2429 317.357 88.9071 317.97 86.916 318.544C84.9248 319.157 81.134 319.922 78.4919 320.305C75.8498 320.688 72.8631 321.109 71.791 321.301C70.7571 321.454 68.9191 321.607 67.7704 321.607C63.4052 321.645 67.6938 320.65 75.8115 319.731C81.6701 319.08 90.3622 317.089 93.5786 315.672C99.0925 313.221 106.483 310.618 113.528 308.626C122.833 305.946 126.011 304.683 129.419 302.27C132.482 300.088 133.363 299.858 133.555 301.313ZM134.167 306.98C134.282 308.014 134.627 311.23 134.971 314.179C135.507 319.31 136.197 323.33 137.077 326.24C137.46 327.504 138.226 332.329 138.8 336.77C138.954 337.804 139.566 340.638 140.179 343.05C141.06 346.458 141.289 348.22 141.289 351.283C141.289 354.193 141.519 356.108 142.208 358.788C143.893 365.336 144.353 368.935 144.353 376.057C144.353 380.805 144.506 383.332 144.889 384.634C145.463 386.434 145.463 386.472 144.238 388.081C143.319 389.344 142.4 389.995 140.524 390.799C138.915 391.488 137.192 392.637 135.737 394.016C134.32 395.356 131.946 396.964 129.611 398.228C127.505 399.338 125.36 400.525 124.824 400.908C122.718 402.401 117.625 404.661 115.443 405.12C114.179 405.35 110.81 406.307 107.976 407.226C102.462 408.988 101.275 409.217 90.5536 410.519C83.3166 411.4 80.7511 411.362 72.3653 410.366C68.4979 409.868 68.2299 409.792 66.1239 408.183C63.2903 406.077 62.4096 404.507 60.6865 398.611C59.2698 393.709 59.1549 393.212 57.0872 382.72C56.4362 379.35 55.7087 375.713 55.5172 374.679C55.2875 373.607 54.8663 370.85 54.56 368.552C54.2153 366.216 53.7176 363.038 53.4112 361.468C52.4157 356.299 51.6881 351.589 51.4967 349.33C51.1903 345.233 50.1565 338.8 48.7397 331.678C48.3568 329.763 48.2419 328.385 48.4717 328.193C48.6631 328.002 51.0755 327.389 53.8324 326.853C56.5894 326.317 60.3419 325.321 62.2182 324.709C64.8603 323.828 66.277 323.56 68.6511 323.56C73.3609 323.56 87.3755 321.224 89.6346 320.076C89.9793 319.922 91.9321 319.501 93.9998 319.157C98.5565 318.429 106.215 315.94 113.911 312.685C117.089 311.345 120.689 309.928 121.952 309.584C127.734 307.899 132.482 306.252 132.865 305.716C133.631 304.836 133.899 305.104 134.167 306.98ZM59.691 323.177C59.3463 323.369 56.8574 323.981 54.1388 324.517C51.4201 325.053 48.8929 325.551 48.5482 325.628C48.1653 325.743 47.859 325.551 47.859 325.245C47.859 324.594 50.1182 323.981 54.7514 323.369C59.5378 322.756 60.4951 322.718 59.691 323.177ZM45.2935 325.858C45.1403 326.049 44.4894 326.317 43.8767 326.47C43.0343 326.662 42.8046 326.623 42.9577 326.202C43.1492 325.666 44.7574 325.092 45.2935 325.398C45.485 325.475 45.485 325.704 45.2935 325.858ZM46.0976 329.38C46.1742 329.878 46.4422 331.218 46.672 332.367C46.9017 333.516 47.2464 335.43 47.4378 336.656C47.7441 338.8 47.7441 338.8 46.8634 338.417C45.6764 337.843 44.4511 334.664 44.1448 331.333L43.915 328.538H44.9106C45.6764 328.538 45.9827 328.768 46.0976 329.38ZM31.0109 332.176C31.1641 332.252 31.3938 334.205 31.5087 336.464C31.6619 338.723 32.1214 342.131 32.5426 344.046C34.7634 353.542 35.2995 356.912 35.6059 363C35.7973 366.484 36.1419 370.007 36.3334 370.85C36.5631 371.692 36.7546 373.721 36.7546 375.368C36.7546 377.053 37.1758 380.422 37.7119 382.988C38.2479 385.515 38.6691 388.578 38.6691 389.765C38.6691 392.369 39.3967 393.709 40.3539 392.905C40.9283 392.446 40.9666 392.714 40.9666 396.045C40.9666 399.415 41.0432 399.798 41.9622 400.908C42.5365 401.559 42.9195 402.172 42.8046 402.248C42.728 402.325 40.7752 401.176 38.4777 399.645C33.5764 396.39 33.8062 396.964 33.3467 388.272C33.1935 385.362 32.6191 381.035 32.0831 378.316C31.5087 375.674 30.8195 370.582 30.4748 367.02C29.8622 360.779 28.7134 350.364 27.9476 344.237C27.7562 342.667 27.1818 339.451 26.6457 337.153C25.2672 331.103 25.1524 331.448 28.2157 331.754C29.5941 331.908 30.8577 332.099 31.0109 332.176ZM37.5204 333.286C37.5204 333.707 36.7929 333.86 36.5631 333.516C36.4483 333.324 36.6014 333.133 36.9077 333.133C37.2524 333.133 37.5204 333.209 37.5204 333.286ZM42.2302 335.583C42.3834 335.966 42.2685 336.081 41.9239 335.928C41.6176 335.813 41.4644 335.583 41.5793 335.392C41.8473 334.932 42.0005 334.971 42.2302 335.583ZM36.1419 344.122C36.4865 346.458 36.7546 349.139 36.7163 350.058C36.678 351.666 36.678 351.627 35.9888 349.024C34.9549 345.233 33.6913 338.226 33.7296 336.617C33.7296 335.277 33.7679 335.315 34.6103 337.536C35.1081 338.8 35.7973 341.748 36.1419 344.122ZM37.9799 336.273C38.2096 336.924 37.9416 337.728 37.4821 337.728C37.2907 337.728 37.1375 337.307 37.1375 336.77C37.1375 335.775 37.6736 335.469 37.9799 336.273ZM39.435 341.021C38.7457 342.284 39.2435 343.127 40.9283 343.586C42.1153 343.893 42.1536 343.931 41.5793 344.582C41.2346 344.965 41.0432 345.539 41.1581 345.807C41.3878 346.458 40.3922 347.99 40.0093 347.607C39.8562 347.454 39.3967 345.922 39.0138 344.199C38.3245 341.251 38.3245 341.021 38.8989 340.332C39.7796 339.413 40.0859 339.795 39.435 341.021ZM45.9445 340.791C45.9445 340.983 45.753 341.174 45.5233 341.174C45.3318 341.174 45.2552 340.983 45.3701 340.791C45.485 340.561 45.6764 340.408 45.7913 340.408C45.8679 340.408 45.9445 340.561 45.9445 340.791ZM48.6248 344.429C48.6248 345.386 48.6248 346.267 48.6631 346.42C48.6631 346.611 48.3951 346.764 48.0505 346.841C47.1698 347.032 46.8634 345.807 47.6676 345.233C48.1653 344.888 48.2802 344.467 48.0888 343.739C47.9356 343.127 48.0122 342.706 48.2419 342.706C48.4334 342.706 48.6248 343.471 48.6248 344.429ZM41.541 351.13C40.89 351.857 40.89 351.934 41.5027 352.623C42.0388 353.197 42.1919 354.078 42.1919 356.567L42.2302 359.745L43.7236 361.009C44.5277 361.736 45.1786 362.464 45.1786 362.655C45.1786 362.962 42.1919 362.732 41.7707 362.387C41.6558 362.272 41.541 361.507 40.5837 354.423C40.1242 350.9 40.2391 350.402 41.6941 350.364C42.1153 350.364 42.077 350.555 41.541 351.13ZM49.7736 352.929C49.8119 353.542 50.0416 355.38 50.3862 357.065C51.3435 362.272 52.071 366.599 52.071 367.289C52.071 367.863 51.7264 367.978 50.2331 367.978C47.591 367.978 46.4039 366.446 48.4334 365.68C49.965 365.106 49.697 363.651 47.6676 361.392C46.7103 360.32 45.9445 359.324 45.9445 359.171C45.9445 359.018 46.5571 358.711 47.3229 358.52C49.4289 358.022 49.8119 357.141 48.4717 355.763L47.3995 354.614L48.2419 353.274C49.2375 351.627 49.7736 351.513 49.7736 352.929ZM39.435 373.721C39.6647 376.134 40.0093 379.35 40.2391 380.844C40.9666 385.439 40.3922 385.285 39.5115 380.614C39.052 378.201 38.6691 375.062 38.6691 373.645C38.6691 372.266 38.4011 369.739 38.0948 368.093C37.7884 366.446 37.5587 364.149 37.5587 363C37.597 361.124 37.6736 361.315 38.3245 365.106C38.7074 367.403 39.2052 371.309 39.435 373.721ZM43.4555 366.446C44.7574 367.786 44.4128 368.629 42.8812 367.863C42.2685 367.557 41.8856 366.982 41.809 366.331C41.6558 364.991 42.077 365.029 43.4555 366.446ZM44.4128 372.458C47.3229 374.526 47.3612 375.062 44.6043 374.717C43.3789 374.602 42.2302 374.372 42.077 374.257C41.6558 373.989 41.6176 371.041 42.0388 371.041C42.2302 371.041 43.3024 371.692 44.4128 372.458ZM52.7603 373.147C52.6837 373.224 52.1093 373.377 51.4967 373.492L50.3479 373.721L51.4201 373.3C52.1476 372.994 52.4539 372.611 52.4922 371.883L52.5688 370.85L52.722 371.922C52.8369 372.534 52.8369 373.07 52.7603 373.147ZM46.3274 379.733C46.3274 380.001 43.915 379.389 43.1875 378.929C42.8046 378.699 42.4983 378.201 42.4983 377.857C42.4983 377.321 42.8046 377.397 44.4128 378.393C45.485 379.044 46.3274 379.657 46.3274 379.733ZM49.2375 377.933C49.5438 377.933 49.7736 378.087 49.7736 378.316C49.7736 378.891 48.8546 378.776 48.0122 378.087C47.3612 377.551 47.3612 377.512 47.9739 377.704C48.3568 377.819 48.9312 377.933 49.2375 377.933ZM54.3302 381.073C54.3685 382.222 53.9473 382.452 53.2581 381.648C52.9517 381.265 52.99 380.805 53.2963 379.886C53.6793 378.891 53.8324 378.814 54.0622 379.35C54.177 379.733 54.3302 380.499 54.3302 381.073ZM44.9489 383.064L46.0593 383.983L45.2169 385.17C44.0299 386.817 44.2596 388.119 45.6764 388.004C46.2891 387.966 46.7103 388.042 46.6337 388.195C46.5571 388.349 45.9827 389.497 45.3701 390.761C44.2979 392.944 44.2214 392.982 44.1065 391.91C44.0682 391.259 43.7619 389.497 43.4555 387.927C42.728 384.443 42.728 382.145 43.3789 382.145C43.6087 382.184 44.3362 382.567 44.9489 383.064ZM54.1005 384.941C55.2875 385.324 55.5172 385.553 55.5172 386.434V387.468L53.4112 386.089C51.4201 384.788 50.5394 383.677 51.9945 384.251C52.3391 384.366 53.2964 384.711 54.1005 384.941ZM152.738 385.477C153.581 385.668 153.619 385.86 153.428 387.545C153.121 389.957 151.551 393.02 149.369 395.356C148.373 396.39 146.995 398.075 146.306 399.032C145.118 400.717 143.281 402.363 137.46 406.843C128.385 413.889 120.076 417.335 105.487 420.092C103.381 420.513 100.394 421.088 98.8628 421.394C95.3783 422.121 93.8084 422.121 91.128 421.394C89.6729 421.011 86.9925 420.82 82.321 420.82C77.6495 420.82 74.9691 420.628 73.5141 420.245C72.2505 419.901 69.6467 419.671 66.928 419.671C64.4774 419.671 61.9884 419.479 61.3758 419.25C60.8014 419.02 58.0827 418.254 55.3258 417.565C49.4672 416.071 49.7736 416.186 45.3701 414.233C43.4938 413.391 41.0815 412.357 40.0093 411.898C38.9755 411.438 36.7163 410.251 35.0698 409.256C33.385 408.222 31.7384 407.418 31.4321 407.418C31.0875 407.418 30.1685 406.882 29.3644 406.231C27.4881 404.699 27.5264 403.55 29.4027 401.329L30.8577 399.645L35.6441 402.784C45.1786 409.064 49.697 410.596 68.9191 414.157C74.0118 415.076 86.265 415.306 91.7789 414.578C94.2679 414.233 97.8672 413.774 99.7435 413.544C101.85 413.314 105.219 412.51 108.359 411.476C111.193 410.557 114.83 409.524 116.438 409.179C119.195 408.566 125.36 405.771 127.849 403.971C128.424 403.588 130.376 402.516 132.138 401.636C134.282 400.602 136.12 399.3 137.652 397.807C139.337 396.198 140.677 395.279 142.63 394.475C144.85 393.556 145.616 393.02 147.11 391.182C148.105 389.957 149.445 388.617 150.058 388.234C150.977 387.698 151.245 387.238 151.245 386.357C151.245 385.132 151.322 385.094 152.738 385.477ZM56.4745 391.067C56.6277 392.139 57.0489 394.016 57.4318 395.164C57.8147 396.313 58.5039 398.802 59.0017 400.678C59.4612 402.516 60.4568 405.005 61.146 406.154C61.8353 407.341 62.4096 408.337 62.4096 408.413C62.4096 408.605 59.5761 407.379 59.2315 407.035C59.04 406.882 58.7337 406.001 58.5422 405.082C58.0827 403.129 57.585 402.44 56.666 402.44C56.2831 402.44 55.9001 402.21 55.7853 401.942C55.6704 401.636 54.6365 400.793 53.4495 399.989C51.6498 398.802 50.5394 397.845 50.9989 397.845C51.0755 397.845 51.9562 398.113 52.99 398.419C54.0239 398.726 55.2492 398.994 55.747 398.994C57.0489 398.994 57.202 397.921 56.0533 396.888C55.2109 396.122 55.1343 395.854 55.5172 395.394C56.015 394.743 55.747 394.092 54.6748 393.326C54.1005 392.905 54.0622 392.714 54.4834 392.063C54.9046 391.374 54.7897 391.144 53.6027 390.148L52.2625 389L53.641 389.229C54.5217 389.382 55.1343 389.344 55.3258 389.076C55.7853 388.31 56.2065 389 56.4745 391.067ZM49.0077 394.399C49.3141 394.59 49.4672 394.858 49.3524 394.973C49.046 395.279 47.859 394.782 47.859 394.36C47.859 393.939 48.2802 393.939 49.0077 394.399ZM45.102 397.385C45.1786 397.845 45.0638 398.228 44.834 398.228C44.6043 398.228 44.4128 398.075 44.4128 397.883C44.4128 397.692 44.2979 397.232 44.1448 396.849C43.9916 396.39 44.0682 396.275 44.4511 396.39C44.7574 396.466 45.0255 396.926 45.102 397.385Z" fill="black"/>
<path d="M88.7156 182.113C88.2178 182.649 88.4093 185.635 88.9836 185.827C89.8643 186.171 90.4387 185.138 90.2855 183.529C90.1706 182.151 89.4048 181.462 88.7156 182.113Z" fill="black"/>
<path d="M34.6486 238.324C33.385 238.669 33.117 238.937 33.117 239.702C33.117 240.736 33.6147 240.813 36.4866 240.277C37.4056 240.085 37.9034 240.124 37.9034 240.392C37.9034 240.621 37.2524 241.004 36.4866 241.234C32.5809 242.498 23.3527 247.667 20.2894 250.309C18.4515 251.956 18.3749 252.07 18.3749 254.1C18.3749 255.21 18.8344 257.852 19.3704 259.882C20.9021 265.549 21.3999 268.344 21.4382 271.101C21.4382 272.48 21.7828 275.581 22.204 277.994C22.6635 280.406 23.1613 283.431 23.391 284.695C23.8888 287.72 24.9992 291.51 26.0331 293.884C26.4926 294.918 27.067 296.756 27.3733 297.905C27.6413 299.054 28.1391 301.045 28.4837 302.308C28.8284 303.534 29.0964 305.372 29.0964 306.367C29.0964 307.325 29.3644 308.895 29.6708 309.775C29.9771 310.656 30.2451 312.647 30.2451 314.179C30.2451 317.855 30.628 318.199 34.6869 318.199C41.273 318.238 52.4157 314.753 55.1727 311.843C55.9768 310.962 56.0151 310.886 55.4024 309.507C55.0961 308.703 54.5217 306.75 54.1771 305.18C53.8325 303.61 52.8752 299.551 52.0711 296.182C51.2287 292.812 49.8885 286.686 49.0461 282.589C46.6337 270.986 45.2553 265.243 44.6809 264.285C44.566 264.132 44.1831 262.294 43.8385 260.188C43.4939 258.082 42.6897 254.789 42.0771 252.875C41.3113 250.501 40.9666 248.586 40.9666 246.901C40.9666 244.259 39.9711 239.09 39.3201 238.247C38.8606 237.673 36.678 237.711 34.6486 238.324ZM38.6692 246.403C38.6692 248.509 38.9755 250.233 39.7796 252.798C40.3923 254.751 41.0815 257.546 41.3496 259.039C41.6176 260.495 42.3834 263.864 43.1109 266.506C43.8385 269.148 44.6809 272.595 45.0255 274.164C46.4423 280.712 46.7103 282.167 47.2464 284.886C47.8973 288.256 48.6249 291.395 50.1565 297.714C50.7692 300.241 51.6116 303.84 52.0711 305.755C52.4923 307.631 52.9518 309.545 53.0666 310.005C53.2198 310.618 52.9135 310.962 51.4201 311.766C49.2758 312.953 45.9062 314.217 44.0299 314.562C43.3024 314.676 41.1198 315.136 39.2435 315.557C37.329 315.978 35.0315 316.285 34.0742 316.208L32.3511 316.093L32.1597 312.647C32.0448 310.733 31.7385 308.703 31.4704 308.129C31.2024 307.516 31.011 306.214 31.011 305.18C31.011 302.921 29.441 296.488 27.9477 292.774C26.148 288.102 23.7356 276.079 23.7356 271.522C23.7356 268.919 22.9315 264.056 22.204 262.103C21.9742 261.49 21.4382 259.384 20.9787 257.431C20.2129 253.908 20.2129 253.794 20.9021 253.028C22.0125 251.841 27.5647 248.28 29.173 247.782C29.9388 247.514 31.279 246.786 32.198 246.135C34.1891 244.719 36.678 243.57 37.8268 243.532C38.6309 243.532 38.6692 243.685 38.6692 246.403Z" fill="#26AF4C"/>
<path d="M114.294 75.8164C114.141 76.0844 114.294 76.5439 114.6 76.8502C115.405 77.6543 117.281 77.1948 117.089 76.2759C116.936 75.51 114.715 75.1654 114.294 75.8164Z" fill="black"/>
<path d="M146.803 78.9946C146.459 79.9519 146.803 81.3687 147.378 81.3687C148.22 81.3687 148.833 80.1433 148.335 79.3775C147.799 78.4968 147.071 78.3054 146.803 78.9946Z" fill="black"/>
<path d="M102.883 82.9386C102.271 83.5513 102.615 84.6234 103.419 84.6234C103.994 84.6234 104.185 84.432 104.07 83.781C103.956 82.9386 103.343 82.5174 102.883 82.9386Z" fill="black"/>
<path d="M88.6008 89.7927C88.2561 90.6351 88.7539 91.1329 89.9792 91.1329C91.128 91.1329 91.7023 90.3288 91.0131 89.6396C90.4004 89.0269 88.8305 89.1035 88.6008 89.7927Z" fill="black"/>
<path d="M152.087 98.8677C152.202 99.6335 152.432 99.7484 153.925 99.7484C155.419 99.7484 155.648 99.6335 155.763 98.8677C155.878 98.1019 155.763 98.0253 153.925 98.0253C152.087 98.0253 151.973 98.1019 152.087 98.8677Z" fill="black"/>
<path d="M136.197 100.17C136.043 100.323 135.929 100.782 135.929 101.165C135.929 101.701 136.235 101.854 137.307 101.854C138.494 101.854 138.647 101.739 138.532 100.974C138.456 100.399 138.111 100.093 137.46 100.016C136.924 99.9398 136.35 100.016 136.197 100.17Z" fill="black"/>
<path d="M125.284 102.697C124.48 103.501 125.016 105.301 126.05 105.301C126.701 105.301 127.16 103.769 126.739 103.003C126.279 102.122 125.935 102.046 125.284 102.697Z" fill="black"/>
</svg>
