<svg width="593" height="497" viewBox="0 0 593 497" fill="none" xmlns="http://www.w3.org/2000/svg">
<path d="M415.869 137.657C412.582 136.461 406.071 133.82 401.372 131.718C396.673 129.616 390.162 126.975 386.83 125.869C381.775 124.156 375.191 121.087 345.005 106.336C317.182 92.727 308.912 88.5078 307.905 87.4611C305.8 85.3238 263.513 65.0075 255.921 62.5162C251.23 60.9782 245.214 58.2399 222.412 47.2245C200.064 36.4284 193.73 33.5365 190.196 32.5017C184.352 30.7989 169.136 23.4479 164.693 20.2369C162.869 18.9081 158.298 16.1952 154.524 14.1484C150.729 12.1469 146.159 9.54687 144.407 8.42008C139.741 5.43778 134.041 2.7403 133.098 3.06901C131.885 3.49163 90.2167 89.8613 89.1691 94.1172C88.6124 96.3133 84.5795 105.009 73.3885 128.175C62.351 151.022 57.8042 160.086 56.2324 162.296C54.6152 164.484 49.9147 173.866 38.2629 197.985C26.3916 222.559 22.0642 231.169 20.8874 232.561C19.3548 234.342 19.311 234.432 20.0765 235.979L20.8202 237.57L16.7184 246.177C14.4143 250.947 12.5333 255.304 12.4956 255.846C12.4359 256.433 13.1561 257.958 14.0753 259.186C15.5003 261.107 15.929 262.771 17.1818 270.267C17.9919 275.084 19.0996 280.213 19.6835 281.672L20.69 284.343L31.1325 289.051C36.8761 291.658 43.2072 294.324 45.1792 294.997C47.1512 295.669 58.5257 300.884 70.4263 306.633C89.4348 315.76 92.9762 317.359 99.2761 319.394C106.007 321.581 109.117 323.028 145.273 340.495C183.201 358.817 184.064 359.234 185.079 360.845C186.093 362.455 186.093 362.455 187.35 361.942C188.539 361.452 189.197 361.714 197.055 365.51C201.688 367.748 206.522 369.803 207.789 370.079C210.821 370.76 219.034 374.055 234.762 380.925C250.513 387.75 298.008 411.086 300.654 413.261C303.027 415.192 327.419 426.975 332.087 428.446C334.013 429.096 340.116 431.54 345.585 433.902C354.096 437.622 356.545 438.469 362.52 439.899C369.831 441.582 376.652 443.813 376.389 444.358C376.301 444.539 375.289 444.779 374.163 444.907C371.865 445.141 370.934 446.372 371.991 447.779C372.382 448.361 376.112 450.498 381.064 453.003C385.721 455.308 389.628 457.308 389.788 457.442C389.948 457.575 390.073 458.475 390.065 459.536C390.079 460.551 390.457 461.855 390.94 462.48C392.431 464.264 395.024 465.853 396.104 465.591C397.318 465.281 397.216 464.447 395.944 463.833C395.399 463.57 394.328 462.772 393.529 462.106C392.342 461.084 392.107 460.411 392.219 458.672L392.37 456.504L384.806 452.794C380.604 450.708 376.673 448.641 375.988 448.086L374.779 447.11L376.559 446.905C377.551 446.824 379.17 446.486 380.159 446.179L382.001 445.612L392.356 450.503C400.191 454.231 404.145 456.366 408.653 459.328C412.251 461.738 418.503 465.263 424.5 468.272C430.249 471.217 434.841 473.772 435.414 474.441C436.811 475.956 440.376 477.622 445.131 478.911C447.305 479.513 450.82 480.819 452.955 481.851C457.383 483.934 458.467 484.009 461.58 482.32C464.604 480.699 465.248 479.946 465.107 477.917C464.998 476.52 465.737 474.412 469.174 466.716C471.517 461.518 473.829 455.688 474.435 453.739C475.88 448.891 513.237 372.259 516.072 368.363C522.694 359.293 524.876 355.473 534.208 336.62C542.924 318.925 543.69 317.223 545.569 311.015C547.403 304.899 548.257 303.014 555.154 289.203C560.798 277.868 563.46 272.936 565.872 269.451C567.665 266.9 569.878 263.711 570.829 262.322C571.78 260.932 573.81 257.543 575.352 254.815C577.355 251.132 578.284 249.789 578.826 249.826C579.843 249.925 580.191 248.973 580.003 246.81C579.899 245.751 580.115 243.446 580.429 241.637L581.061 238.357L577.512 231.208C575.586 227.309 573.335 222.692 572.499 220.943C571.153 218.164 570.717 217.673 568.445 216.463C567.013 215.716 563.317 214.322 560.214 213.439C554.437 211.713 549.53 209.231 546.675 206.675C545.943 205.985 542.234 203.689 538.483 201.597C532.004 197.963 524.837 193.548 517.027 188.375C514.955 186.982 503.437 181.137 488.946 174.024C469.821 164.674 463.096 161.2 458.793 158.394C451.738 153.865 424.893 140.896 415.869 137.657ZM452.621 160.734C454.261 161.862 467.576 168.743 482.205 176.034C502.695 186.269 510.194 190.228 514.814 193.188C526.422 200.588 528.151 201.648 534.926 205.481C538.677 207.573 542.386 209.869 543.118 210.559C545.792 213.139 555.034 217.436 562.895 219.833L565.229 220.568L559.057 232.881C555.653 239.696 544.866 261.096 535.136 280.541C518.156 314.299 517.388 315.889 517.743 317.125C518.075 318.294 517.923 318.724 516.041 321.345C514.889 322.917 512.774 326.714 511.282 329.802C509.812 332.846 506.617 338.417 504.208 342.127C497.866 351.892 484.853 378.828 480.685 390.82C479.054 395.354 476.654 401.366 475.272 404.228C473.89 407.089 472.211 411.376 471.566 413.754C470.704 416.699 468.868 421.078 465.862 427.301C462.812 433.615 461.086 437.767 460.355 440.439C459.733 442.772 458.052 446.946 456.121 450.943L452.918 457.575L438.607 450.437C425.931 444.089 420.793 441.271 414.919 437.313C413.097 436.097 413.049 435.849 412.47 428.118C411.909 420.116 411.797 413.507 412.174 408.087C412.318 405.356 412.132 401.681 411.697 399.566C411.051 396.844 411.045 394.769 411.547 391.874C411.924 389.703 412.063 386.633 411.883 385.033C411.68 383.367 411.658 381.788 411.812 381.47C412.207 380.652 411.198 379.492 408.376 377.681C406.874 376.731 405.48 375.442 404.993 374.478C404.251 372.999 403.341 372.447 395.364 368.202C390.546 365.65 385.771 362.895 384.745 362.119C382.305 360.212 293.504 317.313 289.812 316.258C288.318 315.872 277.423 311.057 265.549 305.601C251.131 298.916 241.962 294.934 237.769 293.525C232.76 291.833 226.198 288.832 204.941 278.562C190.293 271.542 177.26 265.47 175.878 265.083C174.52 264.763 167.259 261.703 159.769 258.421C152.3 255.093 144.427 251.793 142.296 251.1C137.56 249.54 130.599 247.018 123.568 244.294C120.642 243.16 117.697 242.298 116.953 242.33C116.254 242.385 113.898 241.695 111.698 240.8L107.727 239.162L106.823 240.686C105.831 242.392 99.9595 248.631 97.1047 251.061C96.0784 251.91 93.3833 254.474 91.0235 256.807C88.6857 259.095 86.1473 261.566 85.367 262.254C84.5867 262.941 83.6559 264.172 83.2374 264.923C82.8644 265.695 81.8678 267.062 81.0216 267.886C80.1536 268.755 77.7183 272.172 75.576 275.563C73.4337 278.954 71.4638 281.756 71.1724 281.895C70.903 281.989 59.3672 276.529 45.5354 269.79L20.4373 257.498L21.1348 255.706C21.6349 254.323 21.6038 253.691 20.7769 252.62L19.8108 251.257L24.3092 241.945C28.2809 233.724 28.8264 232.362 28.8661 230.309C28.9028 228.03 29.5172 226.758 42.9495 199.185C54.3207 175.995 57.7045 169.338 60.5991 164.854C65.9242 156.614 90.9834 104.742 93.7333 96.2661C95.3575 91.2804 98.4265 84.6957 115.013 50.1309C128.965 21.0167 134.587 9.727 135.082 9.63002C135.465 9.53456 138.737 11.2273 142.535 13.4543C146.242 15.6374 151.152 18.3456 153.469 19.4647C155.718 20.6073 159.062 22.6149 160.84 23.9218C165.261 27.1782 184.225 36.3959 189.819 37.9216C192.967 38.8263 199.438 41.7841 221.717 52.4908C244.722 63.5487 250.647 66.2431 255.248 67.7372C259.305 69.0808 265.841 71.9022 279.67 78.4147C297.063 86.5934 298.949 87.5605 303.892 91.0128C308.949 94.5763 310.971 95.6092 345.083 112.089C374.494 126.24 381.963 129.681 386.496 131.198C389.533 132.218 397.155 135.227 403.397 137.962C409.639 140.698 416.264 143.45 418.1 144.057C423.087 145.794 449.205 158.411 452.621 160.734ZM571.527 230.726C572.573 232.968 573.388 234.874 573.344 234.965C573.278 235.101 571.599 234.402 569.646 233.459C567.103 232.23 566.1 231.521 566.116 231.025C566.191 229.941 568.646 226.252 569.145 226.494C569.372 226.604 570.414 228.507 571.527 230.726ZM566.79 235.776C566.132 237.139 560.799 243.19 560.436 243.015C560.209 242.905 560.971 240.864 562.112 238.502C563.823 234.959 564.354 234.208 565.144 234.197C566.361 234.113 567.207 234.913 566.79 235.776ZM574.87 239.344C575.08 239.837 575.091 240.627 574.872 241.081C574.477 241.899 573.845 241.93 570.855 241.045C569.112 240.595 569.043 240.506 569.336 238.855C569.777 236.435 570.787 236.083 572.836 237.409C573.77 238.028 574.639 238.896 574.87 239.344ZM574.316 245.014C574.218 246.144 573.055 248.551 572.647 248.354C572.102 248.09 570.018 244.17 570.237 243.716C570.457 243.262 572.488 243.347 573.6 243.828C574.031 243.98 574.377 244.54 574.316 245.014ZM570.363 252.965C569.757 253.176 569.664 253.019 570.081 252.156C570.498 251.293 570.678 251.268 570.89 251.875C571.101 252.481 570.969 252.753 570.363 252.965ZM567.584 257.673C567.207 258.107 566.737 258.384 566.51 258.274C566.055 258.055 566.689 256.512 567.317 256.255C568.125 255.973 568.25 256.874 567.584 257.673ZM553.044 256.923C552.427 257.97 552.709 257.153 553.675 255.155C554.64 253.156 555.148 252.337 554.8 253.289C554.43 254.287 553.64 255.922 553.044 256.923ZM557.573 258.103C557.153 258.74 556.64 259.221 556.346 259.134C555.757 258.962 556.317 256.992 557.208 256.19C558.166 255.252 558.457 256.737 557.573 258.103ZM564.392 261.845C564.352 262.162 563.537 263.617 562.631 265.028C561.658 266.462 560.155 268.762 559.271 270.127C557.614 272.745 556.449 273.302 556.379 271.475C556.343 270.506 561.251 263.129 563.056 261.48C563.858 260.747 564.538 260.963 564.392 261.845ZM549.753 263.737C549.463 263.989 549.482 263.718 549.789 263.082C550.096 262.446 550.297 262.263 550.302 262.601C550.239 262.963 549.975 263.508 549.753 263.737ZM552.462 267.174C552.489 267.467 552.333 267.672 552.061 267.541C551.834 267.431 551.58 267.028 551.554 266.735C551.549 266.397 551.682 266.237 551.955 266.369C552.182 266.479 552.457 266.836 552.462 267.174ZM546.132 271.231C545.69 271.914 545.841 271.371 546.433 270.144C547.048 268.872 547.402 268.371 547.229 268.96C547.035 269.595 546.552 270.594 546.132 271.231ZM551.689 271.675C551.25 272.583 550.357 271.648 550.636 270.606C550.809 270.017 551.011 269.947 551.423 270.37C551.766 270.703 551.864 271.311 551.689 271.675ZM555.201 277.741C553.882 280.354 553.047 280.342 552.516 277.732C552.078 275.392 553.499 273.726 555.137 274.741C556.207 275.426 556.232 275.606 555.201 277.741ZM546.792 283.203C546.682 283.43 546.323 283.593 546.007 283.552C545.69 283.511 545.595 283.129 545.792 282.72C545.99 282.311 546.349 282.148 546.577 282.371C546.806 282.593 546.901 282.975 546.792 283.203ZM548.943 287.099C549.669 289.075 549.367 290.049 546.23 296.657C542.853 303.765 542.19 304.789 541.236 304.328C540.6 304.021 539.021 299.057 539.35 298.375C539.482 298.103 540.271 298.092 541.086 298.261C543.078 298.776 543.771 298.27 542.985 296.882L542.292 295.763L543.619 295.452C544.812 295.187 544.967 294.982 545.387 292.72C545.684 291.295 545.64 289.761 545.246 288.954C544.456 287.341 544.717 286.57 546.31 285.939C547.701 285.379 548.495 285.706 548.943 287.099ZM539.813 289.299C539.418 290.117 538.639 290.917 538.122 291.059C537.425 291.227 537.204 291.568 537.26 292.38C537.269 293.056 536.984 293.647 536.448 294.06C535.912 294.474 535.673 295.086 535.754 296.078C535.847 297.972 534.597 300.561 533.779 300.166C532.371 299.485 532.667 298.06 535.263 293.151C536.955 289.879 538.082 288.127 538.778 287.847C540.302 287.126 540.625 287.618 539.813 289.299ZM538.432 303.87C538.67 304.769 538.581 304.838 537.92 304.351C537.464 304.019 537.185 303.436 537.203 303.052C537.348 302.17 538.122 302.656 538.432 303.87ZM536.932 308.019C536.778 308.337 536.355 308.749 535.952 309.003C535.326 309.372 535.144 309.285 534.773 308.545C534.353 307.558 534.741 306.177 535.504 305.873C536.11 305.662 537.261 307.338 536.932 308.019ZM531.026 306.791C530.713 306.976 530.462 306.799 530.411 306.326C530.258 305.019 530.681 304.607 531.1 305.594C531.31 306.088 531.272 306.63 531.026 306.791ZM539.975 311.114C540.041 312.715 534.836 324.766 534.2 324.459C533.519 324.13 531.65 317.793 532.023 317.021C532.725 315.567 533.623 315.217 534.895 315.831C536.485 316.599 537.171 315.642 536.51 313.53C536.133 312.34 536.263 311.954 537.374 310.698C538.796 309.032 539.881 309.22 539.975 311.114ZM528.086 312.878C528.07 313.374 527.851 313.829 527.716 313.876C527.177 314.063 526.711 312.942 527.04 312.26C527.457 311.397 528.161 311.794 528.086 312.878ZM525.672 317.874C525.611 318.349 525.221 319.505 524.738 320.504C524.123 321.776 523.7 322.188 523.201 321.946C522.656 321.683 522.805 321.027 523.726 319.119C524.889 316.712 525.806 316.09 525.672 317.874ZM529.81 326.82C529.251 327.166 527.403 325.657 527.163 324.645C527.066 324.15 527.215 323.494 527.573 323.218C528.107 322.692 528.335 322.914 529.193 324.617C529.749 325.67 530.034 326.704 529.81 326.82ZM528.008 328.695C528.285 329.165 528.069 329.844 527.183 331.097C525.966 332.806 524.952 332.933 524.661 331.448C524.398 330.368 524.974 327.901 525.533 327.555C526.16 327.186 527.408 327.733 528.008 328.695ZM520.693 326.673C520.884 327.438 520.708 327.801 519.971 328.285C519.098 328.816 519.059 329.245 519.537 331.269C519.825 332.529 519.869 334.062 519.561 334.698C519.101 335.652 518.921 335.677 517.78 334.79C517.074 334.281 516.231 333.706 515.913 333.552C514.914 333.069 515.413 331.574 517.625 328.385C519.838 325.196 520.286 324.964 520.693 326.673ZM529.449 335.105C528.308 337.467 527.799 338.173 527.299 337.932C525.618 337.12 526.509 334.581 529.405 331.834C531.031 330.323 531.051 331.789 529.449 335.105ZM524.841 344.644C523.7 347.006 522.662 348.689 522.257 348.718C521.918 348.722 521.298 347.918 520.923 346.841C520.033 344.506 520.797 342.578 522.779 342.303C523.927 342.129 524.082 341.924 524.023 340.887C523.84 339.062 524.13 338.81 525.519 339.761L526.794 340.601L524.841 344.644ZM516.693 341.1C517.025 342.268 517.106 343.26 516.904 343.331C516.23 343.565 512.328 338.655 512.565 337.817C512.671 337.364 513.134 336.523 513.555 335.998L514.422 335.016L515.261 336.99C515.749 338.067 516.361 339.931 516.693 341.1ZM511.498 342.344C511.389 342.571 511.03 342.734 510.713 342.693C510.397 342.652 510.301 342.27 510.499 341.861C510.696 341.452 511.055 341.289 511.284 341.512C511.513 341.734 511.608 342.117 511.498 342.344ZM511.946 350.347C511.474 350.511 508.969 347.116 508.728 345.991C508.585 345.474 508.846 344.704 509.178 344.248C509.822 343.495 510.028 343.763 511.063 346.839C511.721 348.726 512.126 350.322 511.946 350.347ZM519.637 350.197C520.921 351.714 520.899 351.759 519.727 353.49C517.293 357.02 516.867 357.206 516.205 354.982C515.969 354.195 516.138 353.381 516.56 352.856C516.959 352.377 517.306 351.312 517.272 350.455C517.237 349.598 517.43 348.851 517.654 348.735C518.193 348.547 518.057 348.481 519.637 350.197ZM507.441 352.597C508.617 356.078 508.382 357.029 506.581 355.654C505.577 354.833 505.26 354.793 504.638 355.5C504.239 355.98 503.587 356.169 503.087 355.928C502.406 355.598 502.378 355.193 502.948 354.012C503.936 351.968 505.796 349.393 506.159 349.569C506.341 349.656 506.923 351.002 507.441 352.597ZM512.101 355.128C512.568 356.25 512.05 358.017 511.323 357.666C510.915 357.468 509.547 353.11 509.766 352.655C509.964 352.247 511.589 353.984 512.101 355.128ZM513.6 362.463C510.895 367.599 509.644 368.563 509.803 365.335C509.874 363.912 510.073 363.616 511.06 363.197C511.756 362.917 512.555 361.958 513.213 360.595C513.959 359.051 514.404 358.594 514.747 358.927C515.045 359.239 514.698 360.304 513.6 362.463ZM506.843 359.983C507.07 360.092 507.098 360.498 506.922 360.862C506.461 361.815 505.869 361.417 505.441 359.754C505.062 358.45 505.084 358.405 505.724 359.05C506.091 359.451 506.615 359.873 506.843 359.983ZM502.248 360.564C502.573 362.906 502.1 364.582 500.852 365.772C500.273 366.277 500.089 366.076 499.504 364.505C498.895 362.866 498.955 362.279 499.964 360.189C500.6 358.872 501.309 357.87 501.536 357.979C501.718 358.067 502.049 359.236 502.248 360.564ZM507.461 372.27C507.245 372.95 506.8 373.408 506.573 373.298C506.073 373.056 505.11 366.933 505.439 366.251C505.527 366.07 506.104 367.077 506.778 368.467C507.476 370.037 507.743 371.454 507.461 372.27ZM503.508 370.249C503.629 372.548 503.291 372.553 502.289 370.22C501.801 369.144 502.295 367.31 502.976 367.639C503.203 367.748 503.422 368.919 503.508 370.249ZM492.888 379.012C493.263 381.714 492.975 382.079 491.468 380.791C490.578 380.081 490.528 379.721 491.275 378.176C491.735 377.223 492.221 376.449 492.357 376.515C492.494 376.581 492.735 377.705 492.888 379.012ZM501.167 382.283C501.8 383.989 501.337 386.455 500.429 386.016C500.065 385.841 499.435 380.998 499.72 380.408C499.984 379.863 500.511 380.51 501.167 382.283ZM490.523 384.256C490.665 384.773 490.383 385.589 489.939 386.159C489.317 386.867 489.261 387.68 489.711 389.298C490.021 390.512 490.046 392.317 489.789 393.313C489.315 394.989 489.182 395.149 488.319 394.732C487.274 394.227 487.075 394.523 486.877 396.556C486.781 397.799 486.67 397.913 486.144 397.379C485.846 397.067 485.322 396.645 485.004 396.492C484.595 396.294 484.956 394.62 486.128 391.265C487.039 388.567 488.103 385.552 488.428 384.532C488.861 383.173 489.149 382.808 489.649 383.049C490.012 383.225 490.426 383.761 490.523 384.256ZM497.129 393.89C496.229 395.752 495.819 395.442 494.874 392.296C494.282 390.274 494.292 389.326 494.95 387.963L495.762 386.283L496.775 389.405C497.505 391.719 497.612 392.891 497.129 393.89ZM492.534 402.706C492.416 403.994 492.237 404.132 491.818 403.145C491.353 402.136 491.567 401.343 492.203 401.651C492.43 401.76 492.595 402.232 492.534 402.706ZM484.153 400.339C484.073 401.084 484.006 401.108 483.657 400.323C483.192 399.314 483.233 398.998 483.823 399.283C484.05 399.393 484.215 399.864 484.153 400.339ZM482.372 407.041C482.735 408.841 482.981 410.304 482.846 410.351C482.711 410.398 481.889 409.665 481.064 408.706C479.529 407.012 479.393 405.322 480.618 404.177C481.465 403.354 481.602 403.532 482.372 407.041ZM478.57 414.448C478.236 414.791 477.718 414.821 477.489 414.598C476.963 414.064 477.596 410.897 478.312 410.458C479.028 410.02 479.283 413.784 478.57 414.448ZM382.236 366.733C384.104 368.084 388.402 370.553 392.172 372.374L398.804 375.578L399.135 378.371C399.976 385.444 400.293 405.429 399.598 409.071C399.01 412.26 398.413 418.134 398.108 423.869C397.917 426.466 397.805 426.468 390.86 423.449C387.183 421.897 382.035 419.914 379.361 419.071C376.144 418.077 370.811 415.78 363.566 412.337C357.571 409.44 351.238 406.661 349.539 406.12C347.817 405.625 342.033 403.334 336.587 401.04C331.208 398.721 325.56 396.497 324.087 396.066C322.615 395.635 318.648 394.222 315.245 392.915C311.911 391.584 308.578 390.366 307.854 390.24C307.152 390.069 300.594 387.293 293.217 384.01C285.885 380.748 278.033 377.403 275.788 376.598C273.544 375.794 259.081 369.087 243.637 361.627C217.679 349.142 215.046 347.983 208.406 345.839C200.679 343.395 197.794 341.945 188.666 336.023C181.291 331.228 136.823 309.745 125.984 305.741C121.789 304.219 113.688 300.81 107.945 298.203C97.9782 293.669 97.455 293.36 96.4404 291.749C95.4038 290.184 95.3129 290.14 94.1897 290.494C93.1118 290.87 92.9975 290.758 92.5187 288.734C91.874 286.126 90.4455 285.604 89.7071 287.712C89.2729 288.959 89.0927 288.984 87.3463 288.308C84.5332 287.173 84.4127 286.611 86.4122 284.328C87.3899 283.231 89.5854 280.426 91.4031 278.055C97.9848 269.302 100.448 266.29 102.902 264.226C104.998 262.438 107.355 259.879 115.22 250.905C115.864 250.152 116.73 249.17 117.13 248.691C117.774 247.937 118.385 248.064 123.668 250C126.843 251.198 131.287 252.784 133.531 253.589C146.906 258.257 151.987 260.264 159.913 264.036C164.773 266.384 169.879 268.571 171.215 268.936C172.664 269.3 187.329 275.937 205.472 284.421C224.227 293.145 238.574 299.628 240.432 300.189C242.198 300.707 253.206 305.521 264.944 310.911C276.682 316.301 287.577 321.117 289.186 321.614C290.795 322.111 311.662 331.911 335.509 343.432C371.551 360.787 379.501 364.74 382.236 366.733ZM483.775 417.243C484.681 419.193 484.665 419.69 483.809 421.461C483.283 422.551 482.662 423.372 482.481 423.284C482.163 423.131 481.242 415.179 481.483 414.679C481.791 414.043 482.89 415.247 483.775 417.243ZM409.465 381.456C409.628 381.815 409.703 382.356 409.593 382.583C409.484 382.81 409.569 384.14 409.791 385.536C410.014 386.931 409.872 389.776 409.494 391.834C409.034 394.525 409.065 396.781 409.601 399.73C410.061 402.025 410.27 405.767 410.099 408.093C409.718 413.288 409.821 419.22 410.426 427.131C410.697 430.511 410.783 433.466 410.629 433.784C410.278 434.511 409.96 434.357 406.679 431.987C403.922 430.04 403.875 429.905 403.443 424.654C403.257 422.603 404.206 412.753 404.843 409.812C405.544 406.621 405.651 402.919 405.279 393.832C404.58 377.304 404.516 377.553 407.34 379.477C408.297 380.164 409.279 381.03 409.465 381.456ZM476.77 421.422C476.521 426.344 476.149 427.229 475.356 425.276C475.121 424.603 474.548 423.934 474.139 423.736C473.503 423.429 473.586 422.909 474.442 421.138C475.034 419.911 475.688 418.21 475.901 417.305C476.652 414.474 477.062 416.409 476.77 421.422ZM113.89 244.38C113.429 245.334 101.025 258.95 99.1965 260.531C97.9477 261.609 96.2335 263.302 95.4124 264.306C92.5714 267.751 86.6072 275.458 84.7487 278.146C83.7081 279.604 81.9516 281.501 80.7905 282.396C79.0702 283.638 78.2618 283.92 76.4761 283.673C75.2323 283.465 74.1672 283.118 74.0498 282.781C73.8135 281.995 80.394 271.504 82.5078 269.332C83.4198 268.372 84.4619 267.027 84.8349 266.255C85.2534 265.504 86.1842 264.273 86.9645 263.586C89.1926 261.525 97.6554 253.4 102.776 248.367C105.358 245.805 107.715 243.246 108.022 242.61C108.527 241.565 108.685 241.586 111.274 242.837C112.773 243.561 113.956 244.244 113.89 244.38ZM479.64 430.091C479.179 431.045 478.734 431.503 478.55 431.189C478.158 430.608 478.294 427.312 478.742 425.456C479.064 424.211 479.064 424.211 479.724 426.323C480.264 427.872 480.211 428.911 479.64 430.091ZM472.792 429.192C472.758 431.697 472.626 431.969 471.683 432.298C470.718 432.672 470.587 432.945 470.263 435.702C469.838 439.25 469.313 440.453 468.404 440.014C467.269 439.465 466.93 441.094 467.683 443.363L468.365 445.429L466.649 447.009C465.156 448.361 464.893 448.906 464.403 451.078C464.129 452.458 463.784 453.636 463.582 453.707C463.425 453.799 463.053 452.947 462.744 451.845C462.361 450.204 462.485 449.367 463.494 447.278C464.175 445.87 465.129 443.082 465.6 441.18C466.519 437.422 471.778 425.957 472.413 426.264C472.641 426.374 472.794 427.68 472.792 429.192ZM476.719 434.283C477.245 434.817 476.788 435.996 473.737 442.31C471.411 447.125 469.382 452.139 467.844 456.83C464.811 466.121 463.326 468.037 463.144 462.963C463.043 460.505 463.087 460.414 464.19 460.219C465.292 460.023 465.38 459.842 465.989 454.87C466.622 449.965 466.732 449.738 468.179 448.365C470.052 446.692 471.232 443.901 471.808 439.809C472.241 436.825 472.241 436.825 473.592 436.581C474.673 436.431 474.917 436.157 475.015 435.028C475.145 433.018 475.415 432.924 476.719 434.283ZM460.662 458.011C461.088 461.073 461.143 465.134 460.806 465.251C460.38 465.437 458.121 460.256 458.174 459.218C458.247 457.908 459.543 455.341 459.997 455.56C460.179 455.648 460.533 456.771 460.662 458.011ZM396.171 432.401C398.028 434.587 397.675 435.201 395.443 433.675C394.441 432.966 393.235 432.216 392.713 432.02C387.858 430.01 379.969 425.583 380.777 425.301C381.383 425.09 386.712 427.048 390.935 428.976C393.637 430.225 395.117 431.22 396.171 432.401ZM373.365 422.785C373.146 423.239 368.953 421.83 368.198 421.073C367.717 420.56 367.759 420.357 368.3 420.282C369.179 420.202 373.585 422.33 373.365 422.785ZM406.276 438.852C406.827 439.566 406.946 440.016 406.583 439.84C405.787 439.4 404.039 436.987 404.788 437.293C405.106 437.446 405.77 438.159 406.276 438.852ZM343.795 410.124C344.531 411.152 345.263 413.579 345.045 414.146C344.958 414.327 344.188 414.18 343.372 413.898C340.47 412.832 340.603 414.296 344.104 421.198C345.89 424.806 347.264 427.991 347.178 428.285C347.003 428.649 345.236 428.131 341.945 426.71C339.154 425.529 334.685 423.763 331.919 422.763C329.131 421.808 323.569 419.289 319.457 417.247L312.029 413.49L312.84 411.809C313.499 410.446 313.482 409.206 312.64 405.382C311.486 400.118 310.252 397.337 309.241 397.689C308.77 397.854 308.675 399.209 308.888 401.552C309.05 403.535 309.028 405.205 308.871 405.298C308.691 405.323 308.081 403.571 307.464 401.369C306.915 399.142 306.298 396.94 306.021 396.47C305.811 395.976 305.827 395.48 306.075 395.431C306.299 395.315 309.745 396.532 313.736 398.012C317.705 399.537 322.238 401.055 323.732 401.44C325.248 401.781 330.148 403.699 334.596 405.624C339.044 407.549 342.744 409.168 342.857 409.167C342.97 409.165 343.381 409.588 343.795 410.124ZM434.951 455.337C435.665 456.411 436.197 457.396 436.109 457.578C435.824 458.168 434.413 457.263 433.356 455.856C432.85 455.163 432.05 454.384 431.641 454.187C431.187 453.967 430.614 453.298 430.29 452.694C429.316 450.766 433.386 453.125 434.951 455.337ZM445.888 461.573C446.082 462.564 446.14 463.488 446.074 463.624C445.942 463.897 442.624 460.445 441.289 458.568C440.461 457.383 440.507 457.405 443.027 458.567C445.343 459.686 445.641 459.998 445.888 461.573ZM304.361 395.5C303.961 395.979 303.834 398.214 304.08 401.415C304.277 404.255 304.378 406.713 304.29 406.894C303.961 407.576 303.247 406.502 301.115 402.335C299.886 399.892 298.707 397.81 298.525 397.722C297.707 397.327 296.892 398.783 296.763 400.905C296.668 402.147 296.388 403.189 296.186 403.259C295.984 403.33 294.816 402.037 293.576 400.43C291.69 397.838 291.504 397.412 292.359 397.265C293.777 396.997 294.233 395.705 293.272 394.68C292.494 393.856 292.583 393.787 294.948 393.53C296.3 393.398 297.58 392.952 297.734 392.634C298.085 391.908 299.443 392.227 302.915 393.737C304.8 394.591 304.983 394.792 304.361 395.5ZM295.66 391.128C295.55 391.355 293.84 391.649 291.767 391.881L288.095 392.292L282.776 389.386C277.161 386.281 268.033 380.359 267.297 379.331C267.022 378.974 269.128 379.6 271.964 380.689C274.731 381.802 278.564 383.261 280.378 383.914C285.003 385.588 295.858 390.72 295.66 391.128ZM397.442 441.251C397.702 442.105 397.52 442.017 396.175 440.975C395.33 440.287 394.486 439.599 394.305 439.511C394.077 439.401 394.051 439.108 394.183 438.836C394.512 438.155 396.974 440.016 397.442 441.251ZM452.168 467.128C452.674 467.821 453.184 468.852 453.327 469.369C453.492 469.953 453.975 470.578 454.384 470.776C455.292 471.215 456.804 476.203 456.343 477.157C456.146 477.565 455.286 477.374 453.242 476.387C451.697 475.641 448.59 474.419 446.347 473.728C442.653 472.56 442.244 472.362 442.232 471.46C442.157 470.92 441.742 470.271 441.288 470.052C440.379 469.613 439.642 466.848 440.479 466.972C440.75 466.991 441.572 467.724 442.305 468.526C443.016 469.374 443.882 470.016 444.175 469.99C444.806 469.959 445.686 468.255 445.231 468.035C445.004 467.925 444.588 467.164 444.193 466.357L443.496 464.9L444.5 465.721C445.07 466.165 446.261 467.412 447.178 468.528C449.815 471.65 451.705 471.218 450.236 467.764C449.839 466.731 449.532 465.743 449.62 465.561C449.883 465.016 451.089 465.767 452.168 467.128ZM149.13 323.814C149.219 325.37 149.09 325.868 148.352 326.352C146.92 327.228 146.727 327.976 147.622 329.024C148.47 330.05 149.214 333.266 148.629 333.432C148.427 333.503 147.342 331.69 146.229 329.471C144.28 325.505 143.091 324.37 142.157 325.375C141.935 325.604 141.923 326.439 142.182 327.18C142.816 328.999 141.953 328.582 140.864 326.544C140.378 325.58 139.692 324.913 139.104 324.853C138.517 324.793 137.807 324.058 137.18 322.691C136.622 321.525 135.836 320.137 135.423 319.601C134.342 318.127 133.361 318.997 132.546 322.077C132.181 323.413 131.723 324.593 131.453 324.686C131.251 324.757 130.207 322.628 129.223 319.911C128.238 317.195 127.17 314.998 126.81 315.048C126.044 315.126 125.32 316.625 125.385 318.113C125.479 320.007 124.706 319.634 123.568 317.236C122.964 315.935 122.09 314.729 121.681 314.531C120.864 314.136 119.117 310.099 119.446 309.418C119.885 308.509 129.275 312.149 140.132 317.506L148.968 321.831L149.13 323.814ZM153.234 325.292C152.444 326.928 151.788 326.779 151.83 324.95C151.879 323.574 152.302 323.162 153.302 323.644C153.665 323.82 153.629 324.475 153.234 325.292ZM163.128 329.512C162.896 330.688 162.307 330.516 159.844 328.541C157.151 326.345 157.48 325.663 160.569 327.155C162.931 328.296 163.274 328.63 163.128 329.512ZM230.164 361.336C229.827 361.454 226.976 360.861 223.873 359.978C218.867 358.512 218.164 358.228 217.541 357.199C217.124 356.437 215.689 355.464 213.645 354.477C210.511 352.963 209.614 351.689 212.242 352.51C215.211 353.44 230.837 361.101 230.164 361.336ZM248.356 370.181C245.211 369.502 236.616 366.302 235.998 365.611C235.7 365.299 235.58 364.737 235.777 364.328C236.063 363.738 237.106 364.13 243.261 367.159C248.645 369.816 249.872 370.521 248.356 370.181ZM260.379 376.605C260.344 377.373 260.945 378.448 261.974 379.449C263.985 381.317 263.477 382.136 260.937 381.133C259.939 380.763 258.673 380.599 258.158 380.854C257.599 381.201 256.084 380.973 254.203 380.344C252.571 379.78 250.577 379.153 249.717 378.961L248.2 378.621L250.152 377.827C251.522 377.312 252.169 376.785 252.294 376.061C252.417 375.112 252.777 375.062 254.815 375.598C256.286 375.916 257.639 375.898 258.311 375.55C259.721 374.719 260.448 375.07 260.379 376.605ZM390.763 439.537C390.88 439.874 390.384 439.858 389.566 439.463C387.931 438.673 386.902 437.672 387.143 437.172C387.385 436.672 390.39 438.685 390.763 439.537ZM382.154 435.322C382.204 435.682 381.708 435.667 381.072 435.359C380.436 435.052 380.001 434.562 380.11 434.335C380.242 434.062 380.739 434.078 381.193 434.297C381.693 434.539 382.15 434.984 382.154 435.322ZM102.366 304.416C103.207 306.503 104.134 308.295 104.406 308.427C104.724 308.58 105.571 309.494 106.329 310.476L107.707 312.262L103.048 309.731C97.8649 306.891 97.8884 306.959 97.5029 301.842C97.2935 299.725 97.4221 299.226 98.1208 299.172C99.6074 298.994 100.87 300.556 102.366 304.416ZM109.028 306.514C109.244 307.458 109.254 308.248 109.12 308.295C108.716 308.436 105.402 303.698 105.6 303.289C105.841 302.789 107.473 303.354 108.093 304.157C108.414 304.537 108.835 305.636 109.028 306.514ZM115.695 310.687C115.447 312.36 115.083 313.809 114.836 313.857C114.095 314.116 111.645 306.546 112.339 306.153C112.675 305.923 113.626 306.158 114.49 306.688C116.014 307.592 116.106 307.749 115.695 310.687ZM81.2625 292.204C81.2937 292.835 81.0773 293.515 80.8313 293.677C80.026 294.184 75.8895 291.961 74.7401 290.398C73.5453 288.812 74.1486 288.375 76.5513 289.2C80.4735 290.59 81.2017 291.054 81.2625 292.204ZM89.0721 295.753C88.8746 296.162 88.4469 296.235 88.0366 295.925C87.0108 295.149 87.3792 294.039 88.4693 294.565C89.0144 294.829 89.2915 295.299 89.0721 295.753ZM84.8805 294.456C85.2358 295.692 84.6622 296.648 83.7992 296.231C83.572 296.121 83.3796 295.244 83.3219 294.319C83.28 292.899 83.3897 292.672 83.8893 292.913C84.2527 293.088 84.6911 293.804 84.8805 294.456ZM174.691 340.252C176.084 344.79 176.096 345.693 174.672 343.885C174.121 343.17 172.339 341.525 170.674 340.216C165.337 335.957 165.175 335.711 165.9 334.212L166.558 332.85L170.01 334.517L173.417 336.163L174.691 340.252ZM184.196 342.379C184.753 343.544 184.733 343.702 183.788 343.918C183.225 344.039 182.578 344.567 182.359 345.021C182.118 345.52 181.806 345.818 181.669 345.752C181.034 345.445 178.159 339.799 178.422 339.253C178.861 338.345 183.452 340.787 184.196 342.379ZM251.032 374.499C250.725 375.135 247.258 375.701 246.373 375.329C245.828 375.066 245.117 374.218 244.746 373.479L244.073 372.089L246.043 372.649C247.13 372.95 248.263 373.273 248.534 373.292C249.438 373.393 251.142 374.272 251.032 374.499ZM28.4533 267.925C28.1195 268.268 26.9416 267.923 24.8522 266.914C22.7628 265.904 21.7604 265.196 21.8671 264.743C21.8829 264.247 22.8117 264.527 25.4008 265.778C27.9899 267.029 28.7871 267.582 28.4533 267.925ZM43.0415 275.533C43.187 276.275 43.0161 276.977 42.7466 277.071C42.1403 277.282 36.6523 273.566 35.8021 272.427C34.5603 270.707 35.7117 270.759 39.2092 272.449C42.4341 274.007 42.8899 274.339 43.0415 275.533ZM48.8086 278.207C48.3259 279.206 47.3297 278.949 46.907 277.736C46.4609 276.456 46.8855 276.157 48.1119 276.75C48.9295 277.145 49.1378 277.525 48.8086 278.207ZM58.7765 282.854C58.6321 283.849 56.4723 282.637 56.1624 281.423C55.97 280.546 56.0828 280.544 57.3796 281.339C58.1533 281.825 58.7719 282.516 58.7765 282.854ZM64.8774 285.185C64.6753 285.255 64.2445 285.103 63.9924 284.813C63.6949 284.502 63.897 284.431 64.3966 284.673C64.9182 284.869 65.1249 285.136 64.8774 285.185ZM240.96 372.154C240.631 372.836 240.203 372.909 239.431 372.536C238.205 371.944 237.876 371 238.681 370.493C238.949 370.286 239.673 370.412 240.309 370.719C241.081 371.092 241.289 371.473 240.96 372.154ZM359.722 429.92C361.399 432.13 361.65 432.307 362.364 431.756C363.348 431.111 365.027 431.81 365.768 433.176C366.231 434.072 366.209 434.118 365.086 434.472C364.435 434.661 361.36 434.184 358.28 433.369C352.281 431.871 351.803 431.584 351.428 428.882C351.251 427.508 351.251 427.508 351.987 428.536C352.424 429.139 353.336 429.803 354.061 430.042C355.399 430.52 356.043 429.767 356.172 427.644C356.242 426.222 357.563 427.084 359.722 429.92ZM91.7338 300.68C91.6021 300.953 91.3985 300.91 91.1918 300.642C91.0305 300.396 90.9789 299.923 91.0887 299.696C91.2203 299.424 91.4694 299.488 91.6307 299.734C91.8374 300.002 91.8435 300.453 91.7338 300.68ZM119.267 316.166C119.879 318.03 120.569 319.036 121.432 319.453C122.886 320.155 124.884 324.37 123.941 324.699C123.604 324.816 121.676 324.052 119.63 322.952L115.926 320.995L116.644 317.42C117.046 315.429 117.383 313.687 117.493 313.46C117.844 312.734 118.42 313.628 119.267 316.166ZM281.401 392.812C280.208 392.963 279.299 392.524 279.585 391.934C279.716 391.661 280.349 391.743 281.076 392.094C282.03 392.555 282.122 392.712 281.401 392.812ZM288.559 396.55C288.34 397.004 287.776 397.012 286.913 396.595C285.459 395.892 284.971 394.816 286.1 394.914C287.568 395.006 288.888 395.868 288.559 396.55ZM229.552 369.444C229.815 370.524 230.431 370.989 233.519 372.481C235.654 373.513 237.065 374.418 236.934 374.691C236.802 374.963 235.17 374.399 232.99 373.346C230.878 372.382 227.111 370.786 224.503 369.806C218.675 367.607 216.849 366.052 221.514 367.298C223.257 367.748 225.608 368.099 226.713 368.016C229.216 367.937 229.125 367.893 229.552 369.444ZM264.933 386.312C264.736 386.721 264.947 387.328 265.381 387.705C267.116 389.216 265.578 388.921 260.631 386.867C253.348 383.853 250.078 382.273 250.319 381.773C250.67 381.047 252.142 381.478 256.276 383.475C259.819 385.186 260.408 385.359 261.302 384.783C262.578 383.998 265.482 385.177 264.933 386.312ZM25.1346 271.084C25.0514 271.604 24.9556 272.846 24.9459 273.794C24.8689 274.765 24.676 275.512 24.4489 275.402C23.9492 275.161 22.5251 269.991 22.7885 269.446C23.1395 268.719 25.2805 270.202 25.1346 271.084ZM136.785 326.87C137.809 329.157 138.337 329.804 139.469 330.127C141.054 330.557 142.276 332.436 141.403 332.966C140.643 333.496 133.374 329.872 133.135 328.86C133.039 328.478 133.268 327.076 133.679 325.762C134.565 322.884 135.041 323.058 136.785 326.87ZM215.394 363.613C214.714 365.021 213.473 365.038 210.884 363.787C208.159 362.471 205.285 360.186 205.57 359.595C205.658 359.414 207.423 359.818 209.508 360.489C215.401 362.44 215.833 362.705 215.394 363.613ZM300.116 405.214L300.789 406.604L299.768 406.166C299.223 405.903 298.739 405.165 298.708 404.534C298.643 403.045 299.324 403.375 300.116 405.214ZM243.066 377.653C242.82 377.814 242.301 377.844 241.938 377.669C241.574 377.493 241.275 377.068 241.249 376.775C241.199 376.415 241.695 376.431 242.377 376.76C243.058 377.089 243.379 377.468 243.066 377.653ZM307.858 410.41C307.819 410.84 307.641 411.09 307.46 411.002C307.006 410.783 306.489 409.301 306.708 408.847C306.972 408.302 307.936 409.552 307.858 410.41ZM128.956 326.841C128.649 327.477 126.926 326.869 126.893 326.125C126.845 325.877 127.034 324.905 127.27 323.954L127.72 322.21L128.491 324.208C128.891 325.353 129.11 326.523 128.956 326.841ZM197.246 358.039C194.303 358.914 193.283 358.59 192.576 356.343C192.175 355.085 192.238 354.723 192.803 354.828C193.662 354.907 196.155 355.775 198.289 356.694L199.673 357.307L197.246 358.039ZM113.45 318.118C113.657 318.386 113.754 318.881 113.556 319.29C113.271 319.88 112.409 319.576 108.14 317.513C105.369 316.175 100.628 314.277 97.6595 313.347L92.2211 311.616L90.4297 309.294C89.4416 307.976 88.8842 306.811 89.1976 306.626C89.5329 306.396 91.7805 307.425 96.0079 309.692C99.4176 311.563 102.801 313.141 103.456 313.178C104.585 313.275 112.445 317.184 113.45 318.118ZM153.381 337.744L154.078 339.201L152.781 338.407C151.962 337.899 151.57 337.318 151.743 336.729C152.044 335.642 152.521 335.929 153.381 337.744ZM201.071 360.559C200.739 361.015 200.018 361.115 199.111 360.789C197.661 360.312 197.661 360.312 198.985 359.775C200.6 359.099 201.825 359.579 201.071 360.559ZM45.9567 287.473C49 288.943 48.6034 289.648 45.4065 288.496C42.7078 287.472 41.5191 286.338 42.0457 285.248C42.2871 284.748 42.4907 284.79 42.9965 285.483C43.3865 285.951 44.6848 286.859 45.9567 287.473ZM84.2599 306.874C84.5417 307.682 84.089 307.575 80.6823 305.93C76.7306 304.021 75.769 302.996 77.6614 302.79C79.0588 302.68 83.8138 305.594 84.2599 306.874ZM27.8123 280.5C27.9139 281.334 27.7853 281.832 27.4689 281.791C26.7233 281.711 26.0251 280.141 26.3981 279.369C26.8589 278.415 27.5433 278.97 27.8123 280.5Z" fill="black"/>
<path d="M214.125 69.9442C213.355 69.6839 209.301 68.5659 205.18 67.4714C197.708 65.5426 197.526 65.4548 181.856 57.8844C167.729 51.06 166.002 50.1134 165.559 49.059C164.835 47.3091 162.694 47.451 161.254 49.3884C159.748 51.462 149.149 75.0254 147.94 79.0353C147.377 80.7803 140.479 96.1034 132.565 113.065C124.651 130.026 117.418 145.579 116.452 147.578C114.02 152.845 106.989 165.079 105.453 166.635C104.764 167.366 101.656 172.755 98.556 178.709C92.9717 189.456 91.8434 191.096 89.2927 192.665C87.3233 193.843 87.3275 195.805 89.2618 197.02C90.604 197.837 90.6291 198.017 89.9765 201.455C88.9034 207.155 88.9642 208.305 90.4239 209.458C92.6807 211.165 98.1048 213.505 101.772 214.38C103.832 214.871 109.865 217.226 116.152 219.983C122.121 222.586 128.587 225.206 130.423 225.812C132.326 226.396 139.454 229.615 146.335 232.883C155.601 237.36 160.844 239.612 166.738 241.675C171.634 243.368 177.987 245.989 183.301 248.557C188.093 250.815 193.312 253 194.942 253.452C197.026 254.01 220.255 264.952 272.079 289.764C320.314 312.842 346.542 325.232 347.15 325.133C347.736 325.08 364.356 332.773 393.446 346.659C435.89 366.883 438.909 368.285 440.033 367.932C441.11 367.556 441.924 365.988 449.673 350.18C456.148 336.893 458.92 331.734 461.287 328.227C463.963 324.31 466.951 318.358 481.543 288.152C495.85 258.537 499.08 252.198 500.898 249.827C502.56 247.661 504.673 243.752 509.391 233.986C514.986 222.403 515.62 220.86 515.202 219.986C514.619 218.64 508.989 216.032 503.168 214.397C500.608 213.664 496.826 212.565 494.832 211.938C492.567 211.292 481.83 206.497 466.934 199.526C451.926 192.555 441.189 187.761 438.788 187.049C433.916 185.536 420.262 178.547 411.842 173.247C408.52 171.194 402.878 167.796 399.24 165.702C395.647 163.63 389.186 159.725 384.885 157.031C377.991 152.748 373.538 150.485 345.558 136.968C314.602 121.957 311.92 120.55 300.722 113.347C291.639 107.447 287.55 105.359 280.955 103.238C275.924 101.592 272.655 100.124 260.615 94.0839C252.278 89.8881 245.527 86.2348 244.478 85.3917C242.766 83.9485 217.321 70.9836 214.125 69.9442ZM242.672 90.2897C249.639 94.8876 272.032 105.706 280.6 108.612C286.538 110.584 287.31 110.958 292.887 114.604C296.142 116.681 300.285 119.354 302.037 120.481C303.79 121.608 309.541 124.778 314.79 127.482C324.015 132.275 324.266 132.452 324.032 133.516C323.881 134.059 320.362 142.387 316.251 151.942C312.139 161.496 308.383 170.662 307.977 172.315C307.077 175.802 284.247 223.988 281.988 227.155L280.639 229.137L278.324 228.13C270.767 224.871 257.661 220.109 248.553 217.277C244.407 216.003 213.429 201.037 213.35 200.271C213.324 199.978 215.652 198.638 218.477 197.314C221.302 195.989 226.096 193.487 229.027 191.71L234.443 188.5L237.559 182.05C241.092 174.737 242.561 169.957 243.588 162.497C244.429 156.349 244.423 155.898 242.639 149.154C241.878 146.321 240.977 141.46 240.687 138.351C240.349 135.106 239.747 132.294 239.265 131.669C238.806 131.111 236.544 129.066 234.263 127.18C231.981 125.293 227.978 121.287 225.275 118.3L220.328 112.885L211.243 108.496C204.703 105.336 201.072 103.807 198.356 103.167C194.054 102.097 186.075 100.988 183.121 101.073C179.693 101.21 171.783 103.551 166.695 105.967C162.659 107.827 161.542 108.632 160.481 110.248C159.751 111.296 158.508 112.824 157.66 113.535C156.479 114.589 155.839 115.681 154.947 118.107C152.035 126.224 149.741 131.783 146.735 138.006C144.477 142.797 143.495 145.292 143.423 146.602C143.229 150.598 145.05 166.659 146.344 172.214C147.591 177.635 147.846 178.15 150.413 181.071C155.934 187.268 158.645 189.194 168.934 194.22C178.836 199.004 182.44 200.241 188.882 201.056C193.808 201.643 203.745 205.659 226.654 216.222C242.456 223.52 244.838 224.503 249.547 225.657C252.445 226.384 257.839 228.206 261.583 229.734C265.326 231.263 269.746 232.782 271.443 233.097C274.814 233.773 276.447 234.45 276.547 235.171C276.574 235.464 274.764 238.399 272.509 241.792C269.658 246.185 267.191 250.595 263.944 257.318C260.762 263.904 258.759 267.586 257.162 269.616C255.189 272.192 254.948 272.692 254.968 274.158L255.035 275.759L226.627 262.316C209.142 254.093 196.928 248.529 194.822 247.903C192.964 247.342 185.817 244.393 178.939 241.351C172.107 238.331 164.96 235.382 163.079 234.753C161.221 234.192 153.956 230.907 146.94 227.573C139.944 224.194 132.794 221.02 131.027 220.502C129.283 219.939 122.953 217.386 116.984 214.782C110.424 211.893 104.709 209.692 102.603 209.18C98.4384 208.176 94.8296 206.601 94.7265 205.654C94.6984 205.249 95.1785 202.399 95.7903 199.278C96.8664 193.803 97.0843 193.236 101.672 183.855C104.965 177.155 107.145 173.222 108.653 171.261C109.872 169.665 111.948 166.411 113.291 163.978C114.634 161.546 117.172 157.337 118.963 154.673C121.903 150.211 122.276 149.439 123.328 145.521C124.272 141.944 126.398 137.312 137.106 115.146C146.3 96.1143 150.463 87.033 152.467 81.7262C153.968 77.6898 157.204 70.065 159.636 64.7975L164.108 55.193L181.954 63.4783C199.755 71.7417 199.801 71.7637 206.84 73.4276L213.879 75.0916L225.851 81.0428C233.143 84.7339 239.712 88.2994 242.672 90.2897ZM344.858 145.257C344.357 146.528 342.858 149.165 341.533 151.214C340.229 153.217 336.638 159.606 333.58 165.356C330.523 171.105 324.506 181.588 320.179 188.574C314.064 198.449 311.244 203.473 307.646 210.922C302.423 221.733 294.64 235.06 293.514 235.188C293.108 235.216 290.59 234.168 287.932 232.828L283.046 230.3L296.167 203.024C305.205 184.085 309.499 174.731 310.123 172.511C310.81 169.93 323.529 139.659 326.01 134.639L326.602 133.413L336.234 138.178L345.797 142.966L344.858 145.257ZM377.256 158.444C382.786 161.956 393.524 168.488 402.621 173.779C407.442 176.556 412.72 179.778 414.315 180.884C417.709 183.252 438.121 192.721 442.674 194.08C444.305 194.532 454.634 199.242 465.626 204.552C487.542 215.083 493.145 217.286 505.168 220.461C507.161 220.976 508.929 221.606 509.136 221.874C509.643 222.679 499.936 242.192 497.189 245.907C495.218 248.596 491.922 255.071 477.526 284.755C466.839 306.876 459.568 321.346 458.484 322.895C457.487 324.263 452.695 333.488 447.775 343.324C441.121 356.749 438.701 361.294 438.117 361.46C437.622 361.557 436.782 361.207 435.733 360.364C433.246 358.323 430.046 356.945 429.037 357.41C428.252 357.759 423.348 355.502 390.144 339.461C363.868 326.824 351.448 320.991 349.864 320.674C348.348 320.334 335.384 314.351 309.927 302.221L272.229 284.234L282.521 262.931C291.715 243.899 292.947 241.581 293.692 241.661C294.167 241.722 318.398 253.26 347.513 267.325C379.173 282.62 401.336 293.102 402.557 293.357C403.666 293.612 406.271 294.366 408.356 295.037C410.532 295.752 414.059 296.336 416.791 296.479C421.262 296.734 421.531 296.64 426.012 294.323C428.52 292.958 432.415 290.694 434.606 289.175C438.183 286.757 438.983 285.912 441.66 281.994C445.841 275.891 449.67 268.777 452.114 262.675C454.1 257.752 454.164 257.503 453.37 255.551C452.433 252.969 445.987 240.219 445.044 238.923C443.458 236.756 436.791 232.583 428.842 228.743L420.802 224.859L416.403 224.919C409.66 225.078 403.039 227.65 396.991 232.516C387.283 240.319 386.661 241.027 383.238 248.113C378.805 257.288 378.192 260.297 379.57 267.069C380.128 269.972 380.594 272.718 380.554 273.035C380.516 273.577 379.678 273.34 377.407 272.243C375.681 271.409 370.305 269.316 365.431 267.578C357.745 264.817 353.364 262.869 332.061 252.577C317.934 245.753 306.673 240.537 305.496 240.305C304.387 240.049 301.779 239.069 299.69 238.06L295.92 236.238L297.246 234.19C301.397 227.568 305.008 221.021 309.177 212.391C312.842 204.805 315.617 199.871 321.621 190.111C326.235 182.648 330.598 175.007 332.42 171.237C334.109 167.74 337.148 162.261 339.135 159.075C341.168 155.912 343.859 151.385 345.136 149.089C346.413 146.793 347.67 144.655 347.915 144.381C348.471 143.809 372.089 155.107 377.256 158.444ZM186.017 106.674C185.82 107.083 181.111 107.553 180.948 107.194C180.805 106.677 184.137 106.158 186.014 106.448C186.081 106.425 186.083 106.538 186.017 106.674ZM224.307 135.031C225.612 136.39 225.005 136.601 223.297 135.384C220.927 133.679 220.332 133.055 220.573 132.555C220.815 132.056 222.681 133.294 224.307 135.031ZM213.327 137.234C215.134 139.06 216.938 142.284 216.197 142.542C215.658 142.73 209.608 137.51 208.914 136.279C208.659 135.763 208.673 135.154 208.987 134.969C209.792 134.462 211.314 135.254 213.327 137.234ZM194.434 129.956C194.694 130.81 189.239 144.421 188.565 144.656C188.228 144.773 185.119 143.439 181.189 141.485L174.487 138.079L175.126 136.987C177.484 132.804 180.471 128.476 181.343 127.946C181.903 127.6 183.654 126.989 185.296 126.606C188.219 125.889 188.241 125.844 191.267 127.698C192.927 128.668 194.34 129.686 194.434 129.956ZM227.688 146.357C228.04 147.367 227.731 149.515 227.231 149.273C226.686 149.01 225.21 144.991 225.473 144.446C225.736 143.901 227.334 145.233 227.688 146.357ZM422.096 242.011C421.685 243.325 420.245 246.887 418.977 249.86L416.614 255.329L414.888 254.495C412.935 253.552 401.967 246.684 401.258 245.95C400.457 245.171 401.476 243.758 404.509 241.19C407.409 238.781 411.647 236.851 414.892 236.514C416.311 236.359 417.353 236.638 419.807 237.936L422.921 239.608L422.096 242.011ZM431.931 246.818C432.8 247.686 434.122 248.661 434.803 248.99C435.621 249.385 437.046 251.306 438.685 254.058C440.697 257.663 441.235 259.1 441.359 261.513L441.489 264.489L438.526 268.884C433.928 275.85 428.031 280.172 420.389 282.307C418.703 282.781 412.549 281.488 411.451 280.398C411.108 280.064 412.069 277.727 414.943 271.777L418.915 263.555L426.345 267.425C433.616 271.162 433.798 271.249 434.916 270.557C435.834 270.048 436.054 269.594 436.106 268.443C436.15 266.728 435.58 266.284 427.559 262.129C424.264 260.369 421.488 258.692 421.371 258.355C421.254 258.018 422.581 254.458 424.354 250.441L427.503 243.11L428.894 244.174C429.669 244.773 431.016 245.928 431.931 246.818ZM202.535 136.727C203.049 137.983 206.643 141.792 210.5 145.056C211.825 146.257 212.173 146.929 212.197 148.733C212.214 149.974 211.899 151.671 211.482 152.534C210.122 155.35 209.489 155.268 201.358 151.34C192.773 147.193 193.193 148.18 196.489 140.081C198.214 135.815 198.786 134.747 199.439 134.671C200.791 134.539 201.975 135.336 202.535 136.727ZM445.867 254.615C446.191 255.22 446.265 255.647 445.992 255.516C445.765 255.406 445.328 254.803 445.05 254.22C444.726 253.615 444.652 253.188 444.925 253.319C445.152 253.429 445.589 254.032 445.867 254.615ZM166.808 132.52C165.075 136.109 164.1 140.792 163.335 149.218C163.236 150.235 163.312 152.513 163.472 154.27C163.806 157.289 163.549 158.285 162.788 157.077C162.212 156.183 162.223 145.375 162.835 140.629C163.441 135.432 165.822 129.691 167.048 130.284C167.548 130.525 167.488 131.112 166.808 132.52ZM221.136 167.225C220.3 168.838 220.211 168.907 220.354 167.8C220.599 165.901 221.389 164.266 221.78 164.847C221.987 165.115 221.686 166.202 221.136 167.225ZM234.42 176.836C233.915 177.881 233.87 177.859 233.901 176.866C233.916 176.256 234.416 174.873 234.964 173.738L235.952 171.694L235.483 173.708C235.182 174.795 234.727 176.2 234.42 176.836ZM403.257 253.638C404.69 254.499 407.74 256.42 410.016 257.856L414.18 260.484L413.069 263.364C412.459 264.974 410.754 268.969 409.243 272.328C406.047 279.524 406.451 279.383 401.256 275.641C399.342 274.268 397.588 273.028 397.406 272.941C397.179 272.831 396.294 270.835 395.427 268.455C393.391 263.046 393.226 257.588 394.982 253.954C396.605 250.593 397.657 249.924 399.32 251.12C400.072 251.651 401.824 252.778 403.257 253.638ZM211.358 164.967C208.492 169.857 207.268 171.114 204.039 172.579C200.497 174.23 198.177 174.509 201.224 172.956C202.344 172.377 204.158 171.405 205.279 170.825C207.003 169.922 207.536 169.283 209.364 165.964C211.718 161.555 212.139 161.03 212.866 161.381C213.229 161.557 212.792 162.578 211.358 164.967ZM186.814 150.252C187.095 151.061 181.689 164.92 180.775 165.767C180.04 166.476 179.721 166.21 175.35 161.689C171.275 157.368 169.777 153.395 170.269 148.086C170.764 143.003 171.094 142.434 173.045 143.152C176.332 144.348 186.602 149.646 186.814 150.252ZM206.369 159.755C206.533 160.227 206.077 161.519 205.151 163.088C203.453 166.022 201.888 167.059 195.266 169.518C191.943 170.714 190.682 170.889 188.713 170.442C187.378 170.189 186.041 169.711 185.743 169.399C185.422 169.02 185.94 167.253 187.821 162.896C189.175 159.628 190.636 155.908 191.07 154.662C191.936 151.942 191.528 151.858 199.864 155.941C203.952 157.916 206.181 159.216 206.369 159.755ZM388.492 262.864C388.445 264.354 388.6 265.773 388.784 266.087C389.038 266.489 388.927 266.603 388.563 266.428C387.7 266.011 387.018 262.32 387.589 261.139C388.335 259.595 388.474 259.886 388.492 262.864ZM174.226 176.889C174.252 177.182 173.87 177.277 173.371 177.036C172.825 176.772 172.526 176.348 172.636 176.121C172.768 175.848 173.128 175.798 173.491 175.974C173.855 176.149 174.221 176.55 174.226 176.889ZM281.187 261.054L271.29 281.539L264.225 277.958L257.114 274.355L258.192 272.355C258.832 271.263 262.218 264.832 265.759 258.083C271.498 247.13 277.455 237.234 278.82 236.381C279.088 236.174 280.924 236.781 282.831 237.703C284.761 238.579 287.075 239.472 287.889 239.642C291.509 240.382 292.158 238.343 281.187 261.054Z" fill="#26AF4C"/>
<path d="M335.488 356.811C334.379 356.555 330.979 355.361 327.894 354.207C322.043 351.94 319.557 351.636 318.018 352.965C316.569 354.226 312.356 359.698 311.656 361.264C311.261 362.082 311.08 363.731 311.255 364.993C311.946 370.985 313.752 372.697 324.014 377.431C331.62 380.937 331.666 380.959 336.022 381.103C341.868 381.294 343.053 380.466 346.548 373.695C349.494 368.059 349.488 367.608 346.489 364.422C341.476 359.144 339.562 357.771 335.488 356.811ZM341.103 366.526C343.684 368.838 343.723 370.033 341.352 373.201C339.311 375.801 338.503 376.083 334.324 375.689C331.703 375.431 330.207 374.932 325.665 372.738C318.897 369.468 317.345 368.158 316.743 365.346C316.378 363.434 316.441 363.072 317.51 362.019C318.177 361.333 319.041 360.126 319.436 359.308C319.831 358.491 320.498 357.805 320.926 357.731C321.961 357.559 330.078 360.472 334.937 362.707C337.526 363.958 339.823 365.348 341.103 366.526Z" fill="black"/>
<path d="M147.112 271.746C146.66 271.64 144.798 272.477 142.986 273.562C139.808 275.501 139.697 275.615 137.788 279.567C134.036 287.334 135.447 289.864 146.694 295.69C151.034 297.955 153.644 299.047 154.682 299.101C157.843 299.284 164.339 294.186 166.38 289.962C167.938 286.737 167.929 286.06 166.458 284.118C164.988 282.175 163.871 281.355 155.385 276.191C148.674 272.109 148.514 271.976 147.112 271.746ZM157.381 283.542C159.724 284.954 161.752 286.438 161.893 286.842C162.269 287.92 159.468 291.049 156.827 292.574L154.677 293.776L149.454 291.253C146.638 289.893 143.544 288.062 142.653 287.239C141.259 285.95 141.049 285.456 141.343 283.805C141.89 280.932 142.376 280.159 144.816 278.704L146.986 277.343L150.033 279.152C151.739 280.144 154.992 282.108 157.381 283.542Z" fill="black"/>
</svg>
