<svg width="203" height="30" viewBox="0 0 203 30" fill="none" xmlns="http://www.w3.org/2000/svg">
<path d="M4.07031 0.5625V29H0.300781V0.5625H4.07031ZM15.9844 13.3555V16.4414H3.25V13.3555H15.9844ZM17.918 0.5625V3.64844H3.25V0.5625H17.918ZM39.6562 25.9336V29H25.4375V25.9336H39.6562ZM26.1797 0.5625V29H22.4102V0.5625H26.1797ZM62.0391 25.9336V29H46.9805V25.9336H62.0391ZM47.7422 0.5625V29H43.9727V0.5625H47.7422ZM60.0469 12.7891V15.8555H46.9805V12.7891H60.0469ZM61.8438 0.5625V3.64844H46.9805V0.5625H61.8438ZM69.1484 0.5625L75.9844 11.4609L82.8203 0.5625H87.2148L78.2305 14.6445L87.4297 29H82.9961L75.9844 17.8867L68.9727 29H64.5391L73.7383 14.6445L64.7539 0.5625H69.1484Z" fill="black"/>
<path d="M116.863 21.8125C116.863 21.1484 116.759 20.5625 116.551 20.0547C116.355 19.5339 116.004 19.0651 115.496 18.6484C115.001 18.2318 114.311 17.8346 113.426 17.457C112.553 17.0794 111.447 16.6953 110.105 16.3047C108.699 15.888 107.43 15.4258 106.297 14.918C105.164 14.3971 104.194 13.8047 103.387 13.1406C102.579 12.4766 101.961 11.7148 101.531 10.8555C101.102 9.99609 100.887 9.01302 100.887 7.90625C100.887 6.79948 101.115 5.77734 101.57 4.83984C102.026 3.90234 102.677 3.08854 103.523 2.39844C104.383 1.69531 105.405 1.14844 106.59 0.757812C107.775 0.367188 109.096 0.171875 110.555 0.171875C112.69 0.171875 114.5 0.582031 115.984 1.40234C117.482 2.20964 118.621 3.27083 119.402 4.58594C120.184 5.88802 120.574 7.28125 120.574 8.76562H116.824C116.824 7.69792 116.596 6.75391 116.141 5.93359C115.685 5.10026 114.995 4.44922 114.07 3.98047C113.146 3.4987 111.974 3.25781 110.555 3.25781C109.214 3.25781 108.107 3.45964 107.234 3.86328C106.362 4.26693 105.711 4.8138 105.281 5.50391C104.865 6.19401 104.656 6.98177 104.656 7.86719C104.656 8.46615 104.78 9.01302 105.027 9.50781C105.288 9.98958 105.685 10.4388 106.219 10.8555C106.766 11.2721 107.456 11.6562 108.289 12.0078C109.135 12.3594 110.145 12.6979 111.316 13.0234C112.931 13.4792 114.324 13.987 115.496 14.5469C116.668 15.1068 117.632 15.7383 118.387 16.4414C119.155 17.1315 119.721 17.9193 120.086 18.8047C120.464 19.6771 120.652 20.6667 120.652 21.7734C120.652 22.9323 120.418 23.9805 119.949 24.918C119.48 25.8555 118.81 26.6562 117.938 27.3203C117.065 27.9844 116.017 28.4987 114.793 28.8633C113.582 29.2148 112.228 29.3906 110.73 29.3906C109.415 29.3906 108.12 29.2083 106.844 28.8438C105.581 28.4792 104.428 27.9323 103.387 27.2031C102.358 26.474 101.531 25.5755 100.906 24.5078C100.294 23.4271 99.9883 22.1771 99.9883 20.7578H103.738C103.738 21.7344 103.927 22.5742 104.305 23.2773C104.682 23.9674 105.197 24.5404 105.848 24.9961C106.512 25.4518 107.26 25.7904 108.094 26.0117C108.94 26.2201 109.819 26.3242 110.73 26.3242C112.046 26.3242 113.159 26.1419 114.07 25.7773C114.982 25.4128 115.672 24.8919 116.141 24.2148C116.622 23.5378 116.863 22.737 116.863 21.8125ZM144.031 12.7891V15.8555H128.641V12.7891H144.031ZM129.227 0.5625V29H125.457V0.5625H129.227ZM147.312 0.5625V29H143.562V0.5625H147.312ZM175.906 13.8828V15.6797C175.906 17.8151 175.639 19.7292 175.105 21.4219C174.572 23.1146 173.803 24.5534 172.801 25.7383C171.798 26.9232 170.594 27.8281 169.188 28.4531C167.794 29.0781 166.232 29.3906 164.5 29.3906C162.82 29.3906 161.277 29.0781 159.871 28.4531C158.478 27.8281 157.267 26.9232 156.238 25.7383C155.223 24.5534 154.435 23.1146 153.875 21.4219C153.315 19.7292 153.035 17.8151 153.035 15.6797V13.8828C153.035 11.7474 153.309 9.83984 153.855 8.16016C154.415 6.46745 155.203 5.02865 156.219 3.84375C157.234 2.64583 158.439 1.73438 159.832 1.10938C161.238 0.484375 162.781 0.171875 164.461 0.171875C166.193 0.171875 167.755 0.484375 169.148 1.10938C170.555 1.73438 171.759 2.64583 172.762 3.84375C173.777 5.02865 174.552 6.46745 175.086 8.16016C175.633 9.83984 175.906 11.7474 175.906 13.8828ZM172.176 15.6797V13.8438C172.176 12.151 172 10.6536 171.648 9.35156C171.31 8.04948 170.809 6.95573 170.145 6.07031C169.48 5.1849 168.667 4.51432 167.703 4.05859C166.753 3.60286 165.672 3.375 164.461 3.375C163.289 3.375 162.228 3.60286 161.277 4.05859C160.34 4.51432 159.533 5.1849 158.855 6.07031C158.191 6.95573 157.677 8.04948 157.312 9.35156C156.948 10.6536 156.766 12.151 156.766 13.8438V15.6797C156.766 17.3854 156.948 18.8958 157.312 20.2109C157.677 21.513 158.198 22.6133 158.875 23.5117C159.565 24.3971 160.379 25.0677 161.316 25.5234C162.267 25.9792 163.328 26.207 164.5 26.207C165.724 26.207 166.811 25.9792 167.762 25.5234C168.712 25.0677 169.513 24.3971 170.164 23.5117C170.828 22.6133 171.329 21.513 171.668 20.2109C172.007 18.8958 172.176 17.3854 172.176 15.6797ZM192.039 17.8477H184.441V14.7812H192.039C193.51 14.7812 194.702 14.5469 195.613 14.0781C196.525 13.6094 197.189 12.9583 197.605 12.125C198.035 11.2917 198.25 10.3411 198.25 9.27344C198.25 8.29688 198.035 7.37891 197.605 6.51953C197.189 5.66016 196.525 4.97005 195.613 4.44922C194.702 3.91536 193.51 3.64844 192.039 3.64844H185.32V29H181.551V0.5625H192.039C194.188 0.5625 196.004 0.933594 197.488 1.67578C198.973 2.41797 200.099 3.44661 200.867 4.76172C201.635 6.0638 202.02 7.55469 202.02 9.23438C202.02 11.0573 201.635 12.6133 200.867 13.9023C200.099 15.1914 198.973 16.1745 197.488 16.8516C196.004 17.5156 194.188 17.8477 192.039 17.8477Z" fill="#26AF4C"/>
</svg>
